<?xml version="1.0" encoding="UTF-8" standalone="no"?>
<!DOCTYPE svg  PUBLIC '-//W3C//DTD SVG 1.1//EN'  'http://www.w3.org/Graphics/SVG/1.1/DTD/svg11.dtd'>
<svg xmlns="http://www.w3.org/2000/svg">
<defs>
<font id="Olney-Light" horiz-adv-x="590">
<font-face underline-position="-50" font-weight="300" descent="-200" panose-1="0 0 0 0 0 0 0 0 0 0" units-per-em="1000" unicode-range="U+0020-2265" bbox="-100 -266 1230 998" x-height="531" underline-thickness="50" font-family="Olney" ascent="800" cap-height="661"/>
<missing-glyph horiz-adv-x="1000"/>
<glyph glyph-name=".notdef" horiz-adv-x="1000"/>
<glyph glyph-name=".null" horiz-adv-x="0"/>
<glyph glyph-name="nonmarkingreturn" horiz-adv-x="333"/>
<glyph glyph-name="space" horiz-adv-x="323" unicode=" "/>
<glyph glyph-name="exclam" horiz-adv-x="221" unicode="!" d="M50 0v111h121v-111h-121zM60 398l-10 333h121l-10 -333l-20 -158h-61z"/>
<glyph glyph-name="quotedbl" horiz-adv-x="342" unicode='&quot;' d="M201 561v100h111v-100l-29 -129h-53zM30 561v100h111v-100l-29 -129h-53z"/>
<glyph glyph-name="numbersign" horiz-adv-x="792" unicode="#" d="M352 392l-41 -123h130l41 123h-130zM115 392l35 80h137l62 189h91l-62 -189h130l62 189h91l-62 -189l143 1l-35 -80l-134 -1l-40 -123l144 1l-35 -80l-136 -1l-62 -189h-91l62 189h-130l-62 -189h-91l62 189h-144l35 80h135l41 123h-146z"/>
<glyph glyph-name="dollar" horiz-adv-x="593" unicode="$" d="M237 -110v110h-167v85h303q30 0 41.5 7t11.5 26v130q0 33 -73 33h-124q-169 0 -169 170v40q0 170 169 170h8v70h101v-70h175v-85h-293q-30 0 -41.5 -7t-11.5 -26v-136q0 -33 73 -33h124q169 0 169 -170v-34q0 -82 -50 -126t-139 -44h-6v-110h-101z"/>
<glyph glyph-name="percent" horiz-adv-x="911" unicode="%" d="M140 401q0 -23 8 -33t28 -10h91q20 0 28 10t8 33v155q0 24 -8 33.5t-28 9.5h-91q-20 0 -28 -9.5t-8 -33.5v-155zM383 546v-135q0 -55 -34 -85t-94 -30h-67q-60 0 -94 30t-34 85v135q0 55 34 85t94 30h67q60 0 94 -30t34 -85zM608 105q0 -23 8 -33t28 -10h91q20 0 28 10 t8 33v155q0 24 -8 33.5t-28 9.5h-91q-20 0 -28 -9.5t-8 -33.5v-155zM851 250v-135q0 -55 -34 -85t-94 -30h-67q-60 0 -94 30t-34 85v135q0 55 34 85t94 30h67q60 0 94 -30t34 -85zM235 0l360 731h101l-360 -731h-101z"/>
<glyph glyph-name="ampersand" horiz-adv-x="672" unicode="&amp;" d="M410 85q26 1 35.5 10.5t9.5 35.5v154h-225q-31 0 -42 -8.5t-11 -34.5v-114q0 -26 11 -34.5t42 -8.5h180zM365 0h-106q-103 0 -146 35.5t-43 104.5v74q0 104 118 124q-36 5 -63.5 30.5t-27.5 55.5v97q0 69 42 104.5t145 35.5h77q103 0 145 -35.5t42 -104.5v-53h-109v62 q0 28 -11 37t-42 9h-129q-58 0 -58 -38v-120q0 -22 14 -30.5t44 -8.5h345v-94h-50v-145q0 -69 -42 -104.5t-145 -35.5z"/>
<glyph glyph-name="quotesingle" horiz-adv-x="211" unicode="&apos;" d="M50 561v100h111v-100l-29 -129h-53z"/>
<glyph glyph-name="parenleft" horiz-adv-x="356" unicode="(" d="M171 275q0 -378 83 -378h42v-77h-45q-76 0 -122.5 89t-48.5 264v214q2 174 48 259t123 85h45v-77h-42q-83 0 -83 -379z"/>
<glyph glyph-name="parenright" horiz-adv-x="356" unicode=")" d="M185 275q0 379 -83 379h-42v77h45q77 0 123 -85t48 -259v-214q-2 -175 -48.5 -264t-122.5 -89h-45v77h42q83 0 83 378z"/>
<glyph glyph-name="asterisk" horiz-adv-x="569" unicode="*" d="M107 635l141 -125v191h73v-191l141 125l47 -52l-159 -127l159 -127l-47 -52l-141 124v-190h-73v190l-141 -124l-47 52l159 127l-159 127z"/>
<glyph glyph-name="plus" horiz-adv-x="547" unicode="+" d="M50 267v85h178v178h90v-178h179v-85h-179v-178h-90v178h-178z"/>
<glyph glyph-name="comma" horiz-adv-x="236" unicode="," d="M65 0v111h121v-111l-110 -129h-61z"/>
<glyph glyph-name="hyphen" horiz-adv-x="481" unicode="-" d="M50 264v85h381v-85h-381z"/>
<glyph glyph-name="period" horiz-adv-x="221" unicode="." d="M50 0v111h121v-111h-121z"/>
<glyph glyph-name="slash" horiz-adv-x="611" unicode="/" d="M40 -180l430 911h101l-430 -911h-101z"/>
<glyph glyph-name="zero" horiz-adv-x="631" unicode="0" d="M177 148q0 -34 11.5 -48.5t41.5 -14.5h171q30 0 41.5 14.5t11.5 48.5v365q0 34 -11.5 48.5t-41.5 14.5h-171q-30 0 -41.5 -14.5t-11.5 -48.5v-365zM561 491v-321q0 -82 -50 -126t-139 -44h-113q-89 0 -139 44t-50 126v321q0 82 50 126t139 44h113q89 0 139 -44t50 -126z "/>
<glyph glyph-name="one" horiz-adv-x="400" unicode="1" d="M330 661v-661h-107v549l-134 -102l-49 71l186 143h104z"/>
<glyph glyph-name="two" horiz-adv-x="631" unicode="2" d="M454 417v116q0 26 -11 34.5t-42 8.5h-171q-31 0 -42 -9t-11 -37v-72h-107v63q0 69 42 104.5t145 35.5h117q103 0 145 -35.5t42 -104.5v-85q0 -74 -63 -117l-323 -234h386v-85h-487v52q0 60 62 106l286 216q12 8 22 21t10 22z"/>
<glyph glyph-name="three" horiz-adv-x="631" unicode="3" d="M254 661h118q103 0 145 -35.5t42 -104.5v-60q0 -53 -29.5 -86.5t-69.5 -33.5h-5q44 -2 75 -33t31 -86v-82q0 -69 -43 -104.5t-146 -35.5h-118q-103 0 -146 35.5t-43 104.5v21h107v-18q0 -58 57 -58h172q53 0 53 63v72q0 68 -53 68h-198v85h196q53 0 53 68v72q0 63 -53 63 h-172q-52 0 -53 -50v-34h-107v29q0 69 42 104.5t145 35.5z"/>
<glyph glyph-name="four" horiz-adv-x="631" unicode="4" d="M158 201h242v333zM581 201v-85h-84v-116h-97v116h-360v78l353 467h104v-460h84z"/>
<glyph glyph-name="five" horiz-adv-x="631" unicode="5" d="M177 576v-179h225q70 0 114.5 -45t44.5 -125v-57q0 -82 -50 -126t-139 -44h-113q-89 0 -139 44t-50 126v13h107q0 -64 10.5 -81t42.5 -17h171q30 0 41.5 14.5t11.5 48.5v106q0 34 -11.5 48.5t-41.5 14.5h-331v344h476v-85h-369z"/>
<glyph glyph-name="six" horiz-adv-x="631" unicode="6" d="M177 148q0 -34 11.5 -48.5t41.5 -14.5h176q30 0 41.5 14.5t11.5 48.5v110q0 34 -11.5 48.5t-41.5 14.5h-229v-173zM177 513v-107h200q89 0 139 -44t50 -126v-66q0 -82 -50 -126t-139 -44h-118q-89 0 -139 44t-50 126v321q0 82 50 126t139 44h272v-85h-301 q-30 0 -41.5 -14.5t-11.5 -48.5z"/>
<glyph glyph-name="seven" horiz-adv-x="526" unicode="7" d="M260 148v-148h-107v148q0 66 24 103l198 325h-355v85h466v-88l-199 -329q-27 -45 -27 -96z"/>
<glyph glyph-name="eight" horiz-adv-x="631" unicode="8" d="M397 576h-163q-31 0 -42 -8.5t-11 -34.5v-116q0 -26 11 -34.5t42 -8.5h163q31 0 42 8.5t11 34.5v116q0 26 -11 34.5t-42 8.5zM401 289h-171q-31 0 -42 -8.5t-11 -34.5v-118q0 -26 11 -34.5t42 -8.5h171q31 0 42 8.5t11 34.5v118q0 26 -11 34.5t-42 8.5zM372 0h-113 q-103 0 -146 35.5t-43 104.5v82q0 55 31 86t75 33h-5q-40 0 -69.5 33.5t-29.5 86.5v60q0 69 42 104.5t145 35.5h113q103 0 145 -35.5t42 -104.5v-60q0 -53 -29.5 -86.5t-69.5 -33.5h-5q44 -2 75 -33t31 -86v-82q0 -69 -43 -104.5t-146 -35.5z"/>
<glyph glyph-name="nine" horiz-adv-x="631" unicode="9" d="M454 513q0 34 -11.5 48.5t-41.5 14.5h-176q-30 0 -41.5 -14.5t-11.5 -48.5v-110q0 -34 11.5 -48.5t41.5 -14.5h229v173zM454 148v107h-200q-89 0 -139 44t-50 126v66q0 82 50 126t139 44h118q89 0 139 -44t50 -126v-321q0 -82 -50 -126t-139 -44h-272v85h301 q30 0 41.5 14.5t11.5 48.5z"/>
<glyph glyph-name="colon" horiz-adv-x="271" unicode=":" d="M50 371v111h121v-111h-121zM50 0v111h121v-111h-121z"/>
<glyph glyph-name="semicolon" horiz-adv-x="271" unicode=";" d="M100 0v111h121v-111l-110 -129h-61zM100 371v111h121v-111h-121z"/>
<glyph glyph-name="less" horiz-adv-x="476" unicode="&lt;" d="M191 325l235 -215h-138l-228 215l228 215h138z"/>
<glyph glyph-name="equal" horiz-adv-x="547" unicode="=" d="M50 347v85h447v-85h-447zM50 209v85h447v-85h-447z"/>
<glyph glyph-name="greater" horiz-adv-x="476" unicode="&gt;" d="M50 110l235 215l-235 215h138l228 -215l-228 -215h-138z"/>
<glyph glyph-name="question" horiz-adv-x="531" unicode="?" d="M163 0v111h121v-111h-121zM374 437v104q0 26 -11 34.5t-42 8.5h-111q-31 0 -42 -9t-11 -37v-40h-107v43q0 50 36.5 85t100.5 35h152q69 0 105.5 -35t36.5 -85v-85q0 -74 -63 -107l-142 -80v-88h-107v110l173 103q12 7 22 20t10 23z"/>
<glyph glyph-name="at" horiz-adv-x="788" unicode="@" d="M436 252l35 148q2 16 2 21q0 17 -7.5 24t-25.5 9h-58q-22 -1 -33 -13.5t-16 -40.5l-25 -129q-2 -16 -2 -21q0 -33 38 -33h46q20 0 30 8t16 27zM552 427l-30 -172q-1 -3 -1 -10q0 -21 15 -21h64q21 0 21 31v257q0 34 -11.5 48.5t-41.5 14.5h-348q-53 0 -53 -73v-355 q0 -34 11.5 -48.5t41.5 -14.5h508v-84h-479q-89 0 -139 44t-50 126v321q0 82 50 126t139 44h290q89 0 139 -44t50 -126v-169q0 -83 -38 -127.5t-110 -44.5h-72q-28 0 -43 14t-15 39q0 2 0.5 5t0.5 4q-18 -42 -34 -52t-55 -10h-64q-34 0 -57 20t-23 59q0 7 2 23l30 180 q5 30 26.5 54.5t53.5 24.5h144q36 0 58 -17.5t22 -47.5q0 -5 -2 -19z"/>
<glyph glyph-name="A" horiz-adv-x="636" unicode="A" d="M318 570l-119 -337h238zM10 0l239 661h137l240 -661h-108l-52 148h-297l-52 -148h-107z"/>
<glyph glyph-name="B" horiz-adv-x="664" unicode="B" d="M187 576v-193h255q31 0 42 8.5t11 34.5v107q0 26 -11 34.5t-42 8.5h-255zM187 293v-208h259q31 0 42 8.5t11 34.5v122q0 26 -11 34.5t-42 8.5h-259zM80 0v661h335q103 0 145 -35.5t42 -104.5v-63q0 -53 -29.5 -86.5t-69.5 -33.5h-5q44 -2 75 -33t31 -86v-79 q0 -69 -43 -104.5t-146 -35.5h-335z"/>
<glyph glyph-name="C" horiz-adv-x="574" unicode="C" d="M187 148q0 -34 11.5 -48.5t41.5 -14.5h304v-85h-275q-89 0 -139 44t-50 126v321q0 82 50 126t139 44h275v-85h-304q-30 0 -41.5 -14.5t-11.5 -48.5v-365z"/>
<glyph glyph-name="D" horiz-adv-x="668" unicode="D" d="M187 576v-491h251q63 0 63 63v365q0 63 -63 63h-251zM608 491v-321q0 -81 -54.5 -125.5t-144.5 -44.5h-329v661h329q90 0 144.5 -44.5t54.5 -125.5z"/>
<glyph glyph-name="E" horiz-adv-x="607" unicode="E" d="M80 0v661h457v-85h-350v-191h320v-85h-320v-215h350v-85h-457z"/>
<glyph glyph-name="F" horiz-adv-x="567" unicode="F" d="M80 0v661h457v-85h-350v-193h320v-85h-320v-298h-107z"/>
<glyph glyph-name="G" horiz-adv-x="654" unicode="G" d="M177 148q0 -34 11.5 -48.5t41.5 -14.5h257v266h107v-351h-335q-89 0 -139 44t-50 126v321q0 82 50 126t139 44h335v-85h-364q-30 0 -41.5 -14.5t-11.5 -48.5v-365z"/>
<glyph glyph-name="H" horiz-adv-x="732" unicode="H" d="M545 0v279h-358v-279h-107v661h107v-297h358v297h107v-661h-107z"/>
<glyph glyph-name="I" horiz-adv-x="267" unicode="I" d="M80 0v661h107v-661h-107z"/>
<glyph glyph-name="J" horiz-adv-x="514" unicode="J" d="M327 148v513h107v-491q0 -80 -59 -125t-150 -45h-165v85h214q30 0 41.5 14.5t11.5 48.5z"/>
<glyph glyph-name="K" horiz-adv-x="653" unicode="K" d="M333 343h1l289 -343h-127l-246 288h-63v-288h-107v661h107v-288h63l226 288h124z"/>
<glyph glyph-name="L" horiz-adv-x="567" unicode="L" d="M80 0v661h107v-576h350v-85h-457z"/>
<glyph glyph-name="M" horiz-adv-x="896" unicode="M" d="M80 0v661h191v-1l177 -588l177 588v1h191v-661h-107v606l-191 -606h-140l-191 606v-606h-107z"/>
<glyph glyph-name="N" horiz-adv-x="752" unicode="N" d="M80 0v661h177l308 -587v587h107v-661h-179l-306 587v-587h-107z"/>
<glyph glyph-name="O" horiz-adv-x="673" unicode="O" d="M167 148q0 -34 11.5 -48.5t41.5 -14.5h233q30 0 41.5 14.5t11.5 48.5v365q0 34 -11.5 48.5t-41.5 14.5h-233q-30 0 -41.5 -14.5t-11.5 -48.5v-365zM613 491v-321q0 -82 -50 -126t-139 -44h-175q-89 0 -139 44t-50 126v321q0 82 50 126t139 44h175q89 0 139 -44t50 -126z "/>
<glyph glyph-name="P" horiz-adv-x="628" unicode="P" d="M187 576v-291h231q63 0 63 63v165q0 63 -63 63h-231zM80 0v661h309q90 0 144.5 -44.5t54.5 -125.5v-121q0 -81 -54.5 -125.5t-144.5 -44.5h-202v-200h-107z"/>
<glyph glyph-name="Q" horiz-adv-x="696" unicode="Q" d="M187 148q0 -34 11.5 -48.5t41.5 -14.5h233q30 0 41.5 14.5t11.5 48.5v365q0 34 -11.5 48.5t-41.5 14.5h-233q-30 0 -41.5 -14.5t-11.5 -48.5v-365zM633 491v-321q0 -80 -48 -124t-133 -46h214v-91l-301 40v51h-96q-89 0 -139 44t-50 126v321q0 82 50 126t139 44h175 q89 0 139 -44t50 -126z"/>
<glyph glyph-name="R" horiz-adv-x="654" unicode="R" d="M187 576v-251h226q53 0 53 43v165q0 43 -53 43h-226zM486 249l128 -249h-116l-112 240h-199v-240h-107v661h286q116 0 161.5 -33.5t45.5 -130.5v-128q0 -52 -26 -82.5t-61 -37.5z"/>
<glyph glyph-name="S" horiz-adv-x="619" unicode="S" d="M462 120v147l-295 39q-56 7 -86.5 49.5t-30.5 98.5v27q0 87 53 133.5t148 46.5h285v-85h-323q-31 0 -43.5 -7.5t-12.5 -27.5v-141l295 -41q117 -16 117 -152v-27q0 -87 -53 -133.5t-148 -46.5h-305v85h343q31 0 43.5 7.5t12.5 27.5z"/>
<glyph glyph-name="T" horiz-adv-x="621" unicode="T" d="M40 580v81h541v-81h-217v-580h-107v580h-217z"/>
<glyph glyph-name="U" horiz-adv-x="643" unicode="U" d="M50 180v481h107v-513q0 -63 63 -63h203q63 0 63 63v513h107v-481q0 -82 -55 -131t-144 -49h-145q-89 0 -144 49t-55 131z"/>
<glyph glyph-name="V" horiz-adv-x="616" unicode="V" d="M239 0l-229 661h107l191 -570l190 570h108l-230 -661h-137z"/>
<glyph glyph-name="W" horiz-adv-x="928" unicode="W" d="M185 0l-175 661h107l143 -580l138 580h132l138 -580l143 580h107l-175 -661h-150l-129 555l-129 -555h-150z"/>
<glyph glyph-name="X" horiz-adv-x="643" unicode="X" d="M401 330l202 -330h-118l-164 274l-163 -274h-118l202 330l-202 331h118l163 -276l164 276h118z"/>
<glyph glyph-name="Y" horiz-adv-x="627" unicode="Y" d="M617 661l-250 -447v-214h-107v214l-250 447h118l185 -360l186 360h118z"/>
<glyph glyph-name="Z" horiz-adv-x="611" unicode="Z" d="M561 591l-386 -506h396v-85h-531v72h1l386 504h-367v85h501v-70z"/>
<glyph glyph-name="bracketleft" horiz-adv-x="325" unicode="[" d="M80 -180v911h195v-77h-94v-757h94v-77h-195z"/>
<glyph glyph-name="backslash" horiz-adv-x="611" unicode="\" d="M141 731l430 -911h-101l-430 911h101z"/>
<glyph glyph-name="bracketright" horiz-adv-x="365" unicode="]" d="M285 731v-911h-235v77h134v757h-134v77h235z"/>
<glyph glyph-name="asciicircum" horiz-adv-x="630" unicode="^" d="M315 595l-150 -192h-105l205 258h100l205 -258h-105z"/>
<glyph glyph-name="underscore" horiz-adv-x="597" unicode="_" d="M0 -180v77h597v-77h-597z"/>
<glyph glyph-name="grave" horiz-adv-x="386" unicode="`" d="M298 579l-228 72l37 75l209 -99z"/>
<glyph glyph-name="a" d="M161 131q0 -30 10 -42t35 -12h164q21 0 29.5 8t10.5 27v132h-209q-22 -1 -31 -13.5t-9 -40.5v-59zM60 144v33q0 69 42.5 106.5t118.5 37.5h189v89q0 44 -35 44h-261v77h225q77 0 124 -38t47 -106v-387h-100v61q-16 -40 -51.5 -50.5t-106.5 -10.5h-31q-76 0 -118.5 37.5 t-42.5 106.5z" unicode="a"/>
<glyph glyph-name="b" d="M181 400v-288q2 -19 10.5 -27t29.5 -8h163q25 0 35 12t10 42v269q0 28 -9 40.5t-31 13.5h-168q-22 -1 -31 -13.5t-9 -40.5zM80 0v731h100v-261q16 40 51.5 50.5t106.5 10.5h31q76 0 118.5 -37.5t42.5 -106.5v-243q0 -69 -42.5 -106.5t-118.5 -37.5h-31q-71 0 -106.5 10.5 t-51.5 50.5v-61h-100z" unicode="b"/>
<glyph glyph-name="c" horiz-adv-x="500" unicode="c" d="M161 131q0 -30 10 -42t35 -12h254v-77h-239q-76 0 -118.5 37.5t-42.5 106.5v243q0 69 42.5 106.5t118.5 37.5h239v-77h-254q-25 0 -35 -12t-10 -42v-269z"/>
<glyph glyph-name="d" d="M409 112v288q0 28 -9 40.5t-31 13.5h-168q-22 -1 -31 -13.5t-9 -40.5v-269q0 -30 10 -42t35 -12h163q21 0 29.5 8t10.5 27zM510 731v-731h-100v61q-16 -40 -51.5 -50.5t-106.5 -10.5h-31q-76 0 -118.5 37.5t-42.5 106.5v243q0 69 42.5 106.5t118.5 37.5h31 q71 0 106.5 -10.5t51.5 -50.5v261h100z" unicode="d"/>
<glyph glyph-name="e" horiz-adv-x="585" unicode="e" d="M424 305v105q0 44 -35 44h-193q-35 0 -35 -44v-105h263zM525 228h-364v-107q0 -44 35 -44h329v-77h-294q-77 0 -124 38t-47 106v243q0 68 47 106t124 38h123q77 0 124 -38t47 -106v-159z"/>
<glyph glyph-name="f" horiz-adv-x="368" unicode="f" d="M40 531h80v55q0 145 168 145h40v-77h-62q-27 0 -36 -13.5t-9 -43.5v-66h97v-77h-97v-454h-101v454h-80v77z"/>
<glyph glyph-name="g" d="M409 112v288q0 28 -9 40.5t-31 13.5h-168q-22 -1 -31 -13.5t-9 -40.5v-269q0 -30 10 -42t35 -12h163q21 0 29.5 8t10.5 27zM410 -67v128q-16 -40 -51.5 -50.5t-106.5 -10.5h-31q-76 0 -118.5 37.5t-42.5 106.5v243q0 69 42.5 106.5t118.5 37.5h31q71 0 106.5 -10.5 t51.5 -50.5v61h100v-547q0 -81 -47 -122.5t-131 -41.5h-244v77h276h12q20 0 27 6t7 30z" unicode="g"/>
<glyph glyph-name="h" d="M80 0v731h100v-261q16 40 51.5 50.5t106.5 10.5h31q76 0 118.5 -37.5t42.5 -106.5v-387h-101v400q0 28 -9 40.5t-31 13.5h-168q-22 -1 -31 -13.5t-9 -40.5v-400h-101z" unicode="h"/>
<glyph glyph-name="i" horiz-adv-x="281" unicode="i" d="M80 620v111h121v-111h-121zM90 0v531h101v-531h-101z"/>
<glyph glyph-name="j" horiz-adv-x="271" unicode="j" d="M80 -46v577h101v-566q0 -145 -168 -145h-40v77h62q27 0 36 13.5t9 43.5zM70 620v111h121v-111h-121z"/>
<glyph glyph-name="k" horiz-adv-x="589" unicode="k" d="M80 0v731h101v-420h64l173 220h113l-202 -246l210 -285h-116l-178 234h-64v-234h-101z"/>
<glyph glyph-name="l" horiz-adv-x="261" unicode="l" d="M80 0v731h101v-731h-101z"/>
<glyph glyph-name="m" horiz-adv-x="893" unicode="m" d="M80 0v531h100v-61q16 40 51.5 50.5t106.5 10.5h7q113 0 148 -77q16 46 59 61.5t112 15.5h8q76 0 118.5 -37.5t42.5 -106.5v-387h-101v400q0 28 -9 40.5t-31 13.5h-145q-22 -1 -31 -13.5t-9 -40.5v-400h-101v400q0 28 -9 40.5t-31 13.5h-145q-22 -1 -31 -13.5t-9 -40.5 v-400h-101z"/>
<glyph glyph-name="n" d="M80 0v531h100v-61q16 40 51.5 50.5t106.5 10.5h31q76 0 118.5 -37.5t42.5 -106.5v-387h-101v400q0 28 -9 40.5t-31 13.5h-168q-22 -1 -31 -13.5t-9 -40.5v-400h-101z" unicode="n"/>
<glyph glyph-name="o" horiz-adv-x="588" unicode="o" d="M161 131q0 -30 10 -42t35 -12h176q25 0 35 12t10 42v269q0 30 -10 42t-35 12h-176q-25 0 -35 -12t-10 -42v-269zM528 387v-243q0 -69 -42.5 -106.5t-117.5 -37.5h-148q-75 0 -117.5 37.5t-42.5 106.5v243q0 69 42.5 106.5t117.5 37.5h148q75 0 117.5 -37.5t42.5 -106.5z "/>
<glyph glyph-name="p" d="M181 400v-288q2 -19 10.5 -27t29.5 -8h163q25 0 35 12t10 42v269q0 28 -9 40.5t-31 13.5h-168q-22 -1 -31 -13.5t-9 -40.5zM80 -180v711h100v-61q16 40 51.5 50.5t106.5 10.5h31q76 0 118.5 -37.5t42.5 -106.5v-243q0 -69 -42.5 -106.5t-118.5 -37.5h-31 q-71 0 -106.5 10.5t-51.5 50.5v-241h-100z" unicode="p"/>
<glyph glyph-name="q" d="M409 112v288q0 28 -9 40.5t-31 13.5h-168q-22 -1 -31 -13.5t-9 -40.5v-269q0 -30 10 -42t35 -12h163q21 0 29.5 8t10.5 27zM510 531v-711h-100v241q-16 -40 -51.5 -50.5t-106.5 -10.5h-31q-76 0 -118.5 37.5t-42.5 106.5v243q0 69 42.5 106.5t118.5 37.5h31 q71 0 106.5 -10.5t51.5 -50.5v61h100z" unicode="q"/>
<glyph glyph-name="r" horiz-adv-x="395" unicode="r" d="M181 400v-400h-101v531h100v-61q16 40 51.5 50.5t106.5 10.5h37v-77h-154q-22 -1 -31 -13.5t-9 -40.5z"/>
<glyph glyph-name="s" horiz-adv-x="527" unicode="s" d="M376 105v98l-54 12t-69 16t-79 19q-66 15 -95 37t-29 65v35q0 69 42.5 106.5t118.5 37.5h248v-77h-263q-25 0 -35 -6t-10 -22v-90q49 -12 101 -25.5t88 -22.5q76 -18 106.5 -39.5t30.5 -66.5v-38q0 -69 -42.5 -106.5t-118.5 -37.5h-256v77h271q25 0 35 6t10 22z"/>
<glyph glyph-name="t" horiz-adv-x="418" unicode="t" d="M378 454h-157v-320q0 -30 9 -43.5t36 -13.5h112v-77h-90q-168 0 -168 145v309h-80v77h80l30 130h71v-130h157v-77z"/>
<glyph glyph-name="u" d="M221 0q-76 0 -118.5 37.5t-42.5 106.5v387h101v-400q0 -28 9 -40.5t31 -13.5h168q22 1 31 13.5t9 40.5v400h101v-531h-100v61q-16 -40 -51.5 -50.5t-106.5 -10.5h-31z" unicode="u"/>
<glyph glyph-name="v" horiz-adv-x="549" unicode="v" d="M529 531l-189 -531h-131l-189 531h99l155 -455l156 455h99z"/>
<glyph glyph-name="w" horiz-adv-x="779" unicode="w" d="M159 0l-139 531h99l105 -455l106 455h119l105 -455l106 455h99l-139 -531h-131l-100 455l-99 -455h-131z"/>
<glyph glyph-name="x" horiz-adv-x="546" unicode="x" d="M354 265l172 -265h-118l-134 219l-146 -219h-108l175 265l-162 266h108l133 -221l137 221h108z"/>
<glyph glyph-name="y" horiz-adv-x="549" unicode="y" d="M529 531l-253 -711h-82l38 114l-212 597h99l155 -455l156 455h99z"/>
<glyph glyph-name="z" horiz-adv-x="511" unicode="z" d="M471 448l-323 -371h323v-77h-431v83h1l323 371h-307v77h414v-83z"/>
<glyph glyph-name="braceleft" horiz-adv-x="414" unicode="{" d="M86 225h-26v100h26q82 0 82 187q3 119 27 169t94 50h55v-77h-42q-28 0 -35 -51t-7 -156q0 -68 -35.5 -119t-79.5 -53q44 -2 79.5 -53.5t35.5 -118.5q0 -35 0.5 -55t1.5 -47.5t3.5 -43.5t7 -31.5t12 -22.5t17.5 -7h42v-77h-55q-70 0 -94 50t-27 169q0 187 -82 187z"/>
<glyph glyph-name="bar" horiz-adv-x="301" unicode="|" d="M100 -230v1011h101v-1011h-101z"/>
<glyph glyph-name="braceright" horiz-adv-x="414" unicode="}" d="M354 225h-26q-82 0 -82 -187q-3 -119 -27 -169t-94 -50h-55v77h42q28 0 35 51t7 156q0 67 35.5 118.5t79.5 53.5q-44 2 -79.5 53t-35.5 119q0 35 -0.5 55t-1.5 47.5t-3.5 43.5t-7 31.5t-12 22.5t-17.5 7h-42v77h55q70 0 94 -50t27 -169q0 -187 82 -187h26v-100z"/>
<glyph glyph-name="asciitilde" horiz-adv-x="579" unicode="~" d="M386 218q-49 0 -116.5 32t-87.5 32q-35 0 -54.5 -12t-34.5 -40l-43 24q28 57 64 78.5t82 21.5q48 0 114 -32.5t88 -32.5q34 0 53 12t35 41l43 -25q-28 -57 -63 -78t-80 -21z"/>
<glyph glyph-name="exclamdown" horiz-adv-x="221" unicode="¡" d="M171 731v-111h-121v111h121zM161 333l10 -333h-121l10 333l20 158h61z"/>
<glyph glyph-name="cent" horiz-adv-x="510" unicode="¢" d="M256 641h101v-110h113v-77h-264q-25 0 -35 -12t-10 -42v-269q0 -30 10 -42t35 -12h264v-77h-113v-110h-101v110h-35q-76 0 -118.5 37.5t-42.5 106.5v243q0 69 42.5 106.5t118.5 37.5h35v110z"/>
<glyph glyph-name="sterling" horiz-adv-x="654" unicode="£" d="M40 305v77h74v140q0 69 42 104t145 35h37q103 0 145 -35t42 -104v-44h-109v44q0 66 -53 66h-89q-53 0 -53 -63v-143h150v-77h-150v-67q0 -38 -20 -84.5t-53 -76.5h386v-77h-494v77q74 47 74 228h-74z"/>
<glyph glyph-name="currency" horiz-adv-x="583" unicode="¤" d="M179 324q0 -46 33 -79t79 -33t78.5 33t32.5 79t-32.5 78.5t-78.5 32.5t-79 -32.5t-33 -78.5zM120 324q0 50 24 87l-84 75l47 47l81 -73q45 35 103 35q57 0 103 -35l82 73l47 -47l-85 -76q24 -40 24 -86q0 -45 -24 -87l85 -75l-47 -47l-82 73q-46 -35 -103 -35 q-58 0 -103 34l-81 -72l-47 47l84 74q-24 39 -24 88z"/>
<glyph glyph-name="yen" horiz-adv-x="627" unicode="¥" d="M10 661h118l185 -360l186 360h118l-158 -282h103v-77h-146l-30 -53h176v-77h-195v-172h-107v172h-195v77h175l-29 53h-146v77h103z"/>
<glyph glyph-name="brokenbar" horiz-adv-x="301" unicode="¦" d="M100 -230v481h101v-481h-101zM100 320v461h101v-461h-101z"/>
<glyph glyph-name="section" horiz-adv-x="683" unicode="§" d="M496 111v181q0 23 -33 23h-243q-33 0 -33 -23v-181q0 -23 33 -23h243q33 0 33 23zM496 -153v120q0 17 -9.5 24.5t-32.5 8.5h-185q-90 0 -139.5 39.5t-49.5 120.5v65q0 33 14.5 62.5t36.5 42.5q-51 29 -51 96v65q0 82 50 126t139 44h324v-80h-353q-30 0 -41.5 -7 t-11.5 -26v-111q0 -19 11.5 -26t41.5 -7h174q94 0 141.5 -31t47.5 -109v-94q0 -31 -14 -60t-35 -41q21 -5 35 -32t14 -59v-74q0 -82 -50 -126t-139 -44h-334v80h363q30 0 41.5 7t11.5 26z"/>
<glyph glyph-name="dieresis" horiz-adv-x="412" unicode="¨" d="M231 620v111h121v-111h-121zM60 620v111h121v-111h-121z"/>
<glyph glyph-name="copyright" horiz-adv-x="743" unicode="©" d="M167 148q0 -34 11.5 -48.5t41.5 -14.5h303q30 0 41.5 14.5t11.5 48.5v365q0 34 -11.5 48.5t-41.5 14.5h-303q-30 0 -41.5 -14.5t-11.5 -48.5v-365zM683 491v-321q0 -82 -50 -126t-139 -44h-245q-89 0 -139 44t-50 126v321q0 82 50 126t139 44h245q89 0 139 -44t50 -126z M318 271q0 -30 10 -42t35 -12h140v-67h-135q-76 0 -108.5 27.5t-32.5 96.5v113q0 69 32.5 96.5t108.5 27.5h135v-67h-140q-25 0 -35 -12t-10 -42v-119z"/>
<glyph glyph-name="ordfeminine" horiz-adv-x="363" unicode="ª" d="M238 537v114q0 26 -20 27h-79q-20 -1 -20 -27v-105q0 -27 22 -27h77q17 0 20 18zM303 731v-265h-65v35q-14 -35 -59 -35h-48q-38 0 -59.5 18.5t-21.5 53.5v121q0 35 21.5 53.5t59.5 18.5h48q45 0 59 -35v35h65z"/>
<glyph glyph-name="guillemotleft" horiz-adv-x="460" unicode="«" d="M400 490l-77 -195l77 -195h-58l-121 195l121 195h58zM239 490l-77 -195l77 -195h-58l-121 195l121 195h58z"/>
<glyph glyph-name="logicalnot" horiz-adv-x="562" unicode="¬" d="M50 269v80h461l1 -226h-91v146h-371z"/>
<glyph glyph-name="registered" horiz-adv-x="783" unicode="®" d="M187 148q0 -34 11.5 -48.5t41.5 -14.5h303q30 0 41.5 14.5t11.5 48.5v365q0 34 -11.5 48.5t-41.5 14.5h-303q-30 0 -41.5 -14.5t-11.5 -48.5v-365zM703 491v-321q0 -82 -50 -126t-139 -44h-245q-89 0 -139 44t-50 126v321q0 82 50 126t139 44h245q89 0 139 -44t50 -126z M328 454v-114h106q32 0 32 26v62q0 26 -32 26h-106zM476 288l55 -139h-81l-46 134h-76v-134h-71v362h182q92 0 92 -74v-85q0 -26 -15 -43t-40 -21z"/>
<glyph glyph-name="macron" horiz-adv-x="448" unicode="¯" d="M50 651v80h348v-80h-348z"/>
<glyph glyph-name="degree" horiz-adv-x="387" unicode="°" d="M112 518q0 -36 21 -60t60 -24t60 24t21 60t-21.5 60.5t-59.5 24.5t-59.5 -24.5t-21.5 -60.5zM50 518q0 61 40 102t103 41t103.5 -41.5t40.5 -101.5t-40.5 -101t-103.5 -41t-103 41t-40 101z"/>
<glyph glyph-name="plusminus" horiz-adv-x="647" unicode="±" d="M80 0v85h487v-85h-487zM80 354v85h178v179h107v-179h202v-85h-202v-194h-107v194h-178z"/>
<glyph glyph-name="twosuperior" horiz-adv-x="383" unicode="²" d="M241 619v15q0 14 -6 18.5t-22 4.5h-43q-16 0 -21.5 -4.5t-5.5 -19.5v-29h-103v54q0 36 22 54.5t76 18.5h107q54 0 76 -18.5t22 -54.5v-40q0 -40 -33 -61l-149 -93h182v-78h-301v59q0 31 32 48l150 104q17 9 17 22z"/>
<glyph glyph-name="threesuperior" horiz-adv-x="376" unicode="³" d="M204 657h-43q-27 0 -27 -29h-93v30q0 36 22 54.5t76 18.5h98q54 0 76 -18.5t22 -54.5v-32q0 -26 -15.5 -44t-35.5 -18h-2q23 -2 38.5 -18t15.5 -44v-43q0 -36 -22.5 -54.5t-76.5 -18.5h-98q-54 0 -76.5 18.5t-22.5 54.5v31h83q0 -30 28 -30h59q16 0 21.5 4.5t5.5 18.5v17 q0 13 -5.5 17.5t-21.5 4.5h-72v73h66q16 0 22 4.5t6 17.5v17q0 14 -6 18.5t-22 4.5z"/>
<glyph glyph-name="acute" horiz-adv-x="386" unicode="´" d="M316 651l-228 -72l-18 48l209 99z"/>
<glyph glyph-name="mu" d="M61 91l-1 90v350h101v-400q0 -30 10 -42t35 -12h158q25 0 35 12t10 42v400h101v-531h-100v60q-22 -60 -118 -60h-131v-180h-100v271z" unicode="µ"/>
<glyph glyph-name="mu" d="M61 91l-1 90v350h101v-400q0 -30 10 -42t35 -12h158q25 0 35 12t10 42v400h101v-531h-100v60q-22 -60 -118 -60h-131v-180h-100v271z" unicode="μ"/>
<glyph glyph-name="paragraph" horiz-adv-x="578" unicode="¶" d="M383 581v-661h-72v350h-72q-90 0 -144.5 44.5t-54.5 125.5v51q0 81 54.5 125.5t144.5 44.5h259v-741h-69v661h-46z"/>
<glyph glyph-name="periodcentered" horiz-adv-x="221" unicode="·" d="M50 264v111h121v-111h-121z"/>
<glyph glyph-name="cedilla" horiz-adv-x="264" unicode="¸" d="M149 -107q1 3 1 9q0 13 -8.5 22t-24.5 9h-60l12 67h60l-4 -29q50 0 74 -14.5t24 -52.5v-11q-7 -90 -111 -90h-72l11 46h52q38 0 46 44z"/>
<glyph glyph-name="onesuperior" horiz-adv-x="244" unicode="¹" d="M40 581v100l71 50h93v-345h-103v234z"/>
<glyph glyph-name="ordmasculine" horiz-adv-x="353" unicode="º" d="M120 546q0 -27 23 -27h67q23 0 23 27v105q0 27 -23 27h-67q-23 0 -23 -27v-105zM303 659v-121q0 -35 -21.5 -53.5t-58.5 -18.5h-93q-37 0 -58.5 18.5t-21.5 53.5v121q0 35 21.5 53.5t58.5 18.5h93q37 0 58.5 -18.5t21.5 -53.5z"/>
<glyph glyph-name="guillemotright" horiz-adv-x="460" unicode="»" d="M298 295l-77 195h58l121 -195l-121 -195h-58zM137 295l-77 195h58l121 -195l-121 -195h-58z"/>
<glyph glyph-name="onequarter" horiz-adv-x="664" unicode="¼" d="M420 116h92v126zM614 116v-52h-34v-64h-68v64h-163v57l160 204h71v-209h34zM107 0l390 661h81l-390 -661h-81zM60 554v57l91 50h63v-325h-73v260z"/>
<glyph glyph-name="onehalf" horiz-adv-x="664" unicode="½" d="M542 203v44q0 13 -5.5 17t-20.5 4h-39q-15 0 -20.5 -4.5t-5.5 -18.5v-30h-73v41q0 34 20.5 51.5t71.5 17.5h52q51 0 71.5 -17.5t20.5 -51.5v-48q0 -38 -31 -59l-125 -92h156v-57h-234v39q0 31 31 52l116 91q15 11 15 21zM82 0l390 661h81l-390 -661h-81zM60 554v57l91 50 h63v-325h-73v260z"/>
<glyph glyph-name="threequarters" horiz-adv-x="664" unicode="¾" d="M512 242l-92 -126h92v126zM143 661h50q50 0 70.5 -20t20.5 -59v-22q0 -26 -14 -41t-33 -15q21 -3 35 -17t14 -38v-34q0 -79 -93 -79h-50q-93 0 -93 69v21h74v-9q0 -28 28 -28h35q26 0 26 31v35q0 20 -25 20h-70v47h69q25 0 25 30v35q0 13 -5.5 17t-20.5 4h-35 q-26 0 -26 -25v-15h-73v24q0 34 20.5 51.5t70.5 17.5zM509 325h71v-209h34v-52h-34v-64h-68v64h-163v57zM497 661h81l-390 -661h-81z"/>
<glyph glyph-name="questiondown" horiz-adv-x="531" unicode="¿" d="M246 570v111h121v-111h-121zM157 224v-104q0 -26 11 -34.5t42 -8.5h111q31 0 42 9t11 37v40h107v-43q0 -50 -36.5 -85t-100.5 -35h-152q-69 0 -105.5 35t-36.5 85v85q0 74 63 107l142 80v88h107v-110l-173 -103q-12 -7 -22 -20t-10 -23z"/>
<glyph glyph-name="Agrave" horiz-adv-x="636" unicode="À" d="M407 701l-228 72l37 75l209 -99zM318 570l-119 -337h238zM10 0l239 661h137l240 -661h-108l-52 148h-297l-52 -148h-107z"/>
<glyph glyph-name="Aacute" horiz-adv-x="636" unicode="Á" d="M450 773l-228 -72l-18 48l209 99zM318 570l-119 -337h238zM10 0l239 661h137l240 -661h-108l-52 148h-297l-52 -148h-107z"/>
<glyph glyph-name="Acircumflex" horiz-adv-x="636" unicode="Â" d="M318 805l-120 -104h-75l145 150h100l145 -150h-75zM318 570l-119 -337h238zM10 0l239 661h137l240 -661h-108l-52 148h-297l-52 -148h-107z"/>
<glyph glyph-name="Atilde" horiz-adv-x="636" unicode="Ã" d="M410 701q-38 0 -73.5 16t-63.5 32t-48 16q-26 0 -41 -12.5t-28 -39.5l-43 24q22 53 50 76.5t66 23.5q48 0 104.5 -32.5t78.5 -32.5q26 0 40.5 12.5t27.5 40.5l43 -25q-41 -99 -113 -99zM318 570l-119 -337h238zM10 0l239 661h137l240 -661h-108l-52 148h-297l-52 -148 h-107z"/>
<glyph glyph-name="Adieresis" horiz-adv-x="636" unicode="Ä" d="M343 701v111h121v-111h-121zM172 701v111h121v-111h-121zM318 570l-119 -337h238zM10 0l239 661h137l240 -661h-108l-52 148h-297l-52 -148h-107z"/>
<glyph glyph-name="Aring" horiz-adv-x="636" unicode="Å" d="M318 750q17 0 27 9t10 24q0 33 -37 33t-37 -33q0 -15 10 -24t27 -9zM318 865q96 0 96 -82t-96 -82t-96 82t96 82zM318 570l-119 -337h238zM10 0l239 661h137l240 -661h-108l-52 148h-297l-52 -148h-107z"/>
<glyph glyph-name="AE" horiz-adv-x="964" unicode="Æ" d="M412 576l-168 -323h193v323h-25zM437 0v168h-237l-87 -168h-103l353 661h531v-85h-350v-191h320v-85h-320v-215h350v-85h-457z"/>
<glyph glyph-name="Ccedilla" horiz-adv-x="574" unicode="Ç" d="M302 -107q1 3 1 9q0 13 -8.5 22t-24.5 9h-60l12 67h38q-85 2 -132.5 46t-47.5 124v321q0 82 50 126t139 44h275v-85h-304q-30 0 -41.5 -14.5t-11.5 -48.5v-365q0 -34 11.5 -48.5t41.5 -14.5h304v-85h-262l-4 -29q50 0 74 -14.5t24 -52.5v-11q-8 -90 -111 -90h-72l11 46 h52q38 0 46 44z"/>
<glyph glyph-name="Egrave" horiz-adv-x="607" unicode="È" d="M397 701l-228 72l37 75l209 -99zM80 0v661h457v-85h-350v-191h320v-85h-320v-215h350v-85h-457z"/>
<glyph glyph-name="Eacute" horiz-adv-x="607" unicode="É" d="M440 773l-228 -72l-18 48l209 99zM80 0v661h457v-85h-350v-191h320v-85h-320v-215h350v-85h-457z"/>
<glyph glyph-name="Ecircumflex" horiz-adv-x="607" unicode="Ê" d="M308 805l-120 -104h-75l145 150h100l145 -150h-75zM80 0v661h457v-85h-350v-191h320v-85h-320v-215h350v-85h-457z"/>
<glyph glyph-name="Edieresis" horiz-adv-x="607" unicode="Ë" d="M333 701v111h121v-111h-121zM162 701v111h121v-111h-121zM80 0v661h457v-85h-350v-191h320v-85h-320v-215h350v-85h-457z"/>
<glyph glyph-name="Igrave" horiz-adv-x="267" unicode="Ì" d="M222 701l-228 72l37 75l209 -99zM80 0v661h107v-661h-107z"/>
<glyph glyph-name="Iacute" horiz-adv-x="267" unicode="Í" d="M265 773l-228 -72l-18 48l209 99zM80 0v661h107v-661h-107z"/>
<glyph glyph-name="Icircumflex" horiz-adv-x="267" unicode="Î" d="M133 805l-120 -104h-75l145 150h100l145 -150h-75zM80 0v661h107v-661h-107z"/>
<glyph glyph-name="Idieresis" horiz-adv-x="267" unicode="Ï" d="M158 701v111h121v-111h-121zM-13 701v111h121v-111h-121zM80 0v661h107v-661h-107z"/>
<glyph glyph-name="Eth" horiz-adv-x="667" unicode="Ð" d="M186 576v-191h207v-100h-207v-200h251q63 0 63 63v365q0 63 -63 63h-251zM20 285v100h59v276h329q90 0 144.5 -44.5t54.5 -125.5v-321q0 -81 -54.5 -125.5t-144.5 -44.5h-329v285h-59z"/>
<glyph glyph-name="Ntilde" horiz-adv-x="752" unicode="Ñ" d="M468 701q-38 0 -73.5 16t-63.5 32t-48 16q-26 0 -41 -12.5t-28 -39.5l-43 24q22 53 50 76.5t66 23.5q48 0 104.5 -32.5t78.5 -32.5q26 0 40.5 12.5t27.5 40.5l43 -25q-41 -99 -113 -99zM80 0v661h177l308 -587v587h107v-661h-179l-306 587v-587h-107z"/>
<glyph glyph-name="Ograve" horiz-adv-x="673" unicode="Ò" d="M425 701l-228 72l37 75l209 -99zM167 148q0 -34 11.5 -48.5t41.5 -14.5h233q30 0 41.5 14.5t11.5 48.5v365q0 34 -11.5 48.5t-41.5 14.5h-233q-30 0 -41.5 -14.5t-11.5 -48.5v-365zM613 491v-321q0 -82 -50 -126t-139 -44h-175q-89 0 -139 44t-50 126v321q0 82 50 126 t139 44h175q89 0 139 -44t50 -126z"/>
<glyph glyph-name="Oacute" horiz-adv-x="673" unicode="Ó" d="M468 773l-228 -72l-18 48l209 99zM167 148q0 -34 11.5 -48.5t41.5 -14.5h233q30 0 41.5 14.5t11.5 48.5v365q0 34 -11.5 48.5t-41.5 14.5h-233q-30 0 -41.5 -14.5t-11.5 -48.5v-365zM613 491v-321q0 -82 -50 -126t-139 -44h-175q-89 0 -139 44t-50 126v321q0 82 50 126 t139 44h175q89 0 139 -44t50 -126z"/>
<glyph glyph-name="Ocircumflex" horiz-adv-x="673" unicode="Ô" d="M336 805l-120 -104h-75l145 150h100l145 -150h-75zM167 148q0 -34 11.5 -48.5t41.5 -14.5h233q30 0 41.5 14.5t11.5 48.5v365q0 34 -11.5 48.5t-41.5 14.5h-233q-30 0 -41.5 -14.5t-11.5 -48.5v-365zM613 491v-321q0 -82 -50 -126t-139 -44h-175q-89 0 -139 44t-50 126 v321q0 82 50 126t139 44h175q89 0 139 -44t50 -126z"/>
<glyph glyph-name="Otilde" horiz-adv-x="673" unicode="Õ" d="M428 701q-38 0 -73.5 16t-63.5 32t-48 16q-26 0 -41 -12.5t-28 -39.5l-43 24q22 53 50 76.5t66 23.5q48 0 104.5 -32.5t78.5 -32.5q26 0 40.5 12.5t27.5 40.5l43 -25q-41 -99 -113 -99zM167 148q0 -34 11.5 -48.5t41.5 -14.5h233q30 0 41.5 14.5t11.5 48.5v365 q0 34 -11.5 48.5t-41.5 14.5h-233q-30 0 -41.5 -14.5t-11.5 -48.5v-365zM613 491v-321q0 -82 -50 -126t-139 -44h-175q-89 0 -139 44t-50 126v321q0 82 50 126t139 44h175q89 0 139 -44t50 -126z"/>
<glyph glyph-name="Odieresis" horiz-adv-x="673" unicode="Ö" d="M361 701v111h121v-111h-121zM190 701v111h121v-111h-121zM167 148q0 -34 11.5 -48.5t41.5 -14.5h233q30 0 41.5 14.5t11.5 48.5v365q0 34 -11.5 48.5t-41.5 14.5h-233q-30 0 -41.5 -14.5t-11.5 -48.5v-365zM613 491v-321q0 -82 -50 -126t-139 -44h-175q-89 0 -139 44 t-50 126v321q0 82 50 126t139 44h175q89 0 139 -44t50 -126z"/>
<glyph glyph-name="multiply" horiz-adv-x="512" unicode="×" d="M111 117l-61 61l147 147l-147 147l57 58l147 -148l147 148l61 -61l-147 -147l147 -147l-57 -58l-148 147z"/>
<glyph glyph-name="Oslash" horiz-adv-x="673" unicode="Ø" d="M453 85q30 0 41.5 14.5t11.5 48.5v272l-339 -287q2 -26 14 -37t39 -11h233zM167 513v-291l339 287v4q0 34 -11.5 48.5t-41.5 14.5h-233q-30 0 -41.5 -14.5t-11.5 -48.5zM613 491v-321q0 -82 -50 -126t-139 -44h-175q-111 0 -160 67l-79 -67v90l53 44q-3 16 -3 36v321 q0 82 50 126t139 44h175q121 0 167 -80l82 70v-90l-61 -51q1 -6 1 -19z"/>
<glyph glyph-name="Ugrave" horiz-adv-x="643" unicode="Ù" d="M410 701l-228 72l37 75l209 -99zM50 180v481h107v-513q0 -63 63 -63h203q63 0 63 63v513h107v-481q0 -82 -55 -131t-144 -49h-145q-89 0 -144 49t-55 131z"/>
<glyph glyph-name="Uacute" horiz-adv-x="643" unicode="Ú" d="M453 773l-228 -72l-18 48l209 99zM50 180v481h107v-513q0 -63 63 -63h203q63 0 63 63v513h107v-481q0 -82 -55 -131t-144 -49h-145q-89 0 -144 49t-55 131z"/>
<glyph glyph-name="Ucircumflex" horiz-adv-x="643" unicode="Û" d="M321 805l-120 -104h-75l145 150h100l145 -150h-75zM50 180v481h107v-513q0 -63 63 -63h203q63 0 63 63v513h107v-481q0 -82 -55 -131t-144 -49h-145q-89 0 -144 49t-55 131z"/>
<glyph glyph-name="Udieresis" horiz-adv-x="643" unicode="Ü" d="M346 701v111h121v-111h-121zM175 701v111h121v-111h-121zM50 180v481h107v-513q0 -63 63 -63h203q63 0 63 63v513h107v-481q0 -82 -55 -131t-144 -49h-145q-89 0 -144 49t-55 131z"/>
<glyph glyph-name="Yacute" horiz-adv-x="627" unicode="Ý" d="M445 773l-228 -72l-18 48l209 99zM617 661l-250 -447v-214h-107v214l-250 447h118l185 -360l186 360h118z"/>
<glyph glyph-name="Thorn" horiz-adv-x="668" unicode="Þ" d="M187 521v-321h231q63 0 63 63v195q0 63 -63 63h-231zM80 0v730h107v-139h202q90 0 144.5 -44.5t54.5 -125.5v-121q0 -81 -54.5 -125.5t-144.5 -44.5h-202v-130h-107z"/>
<glyph glyph-name="germandbls" horiz-adv-x="578" unicode="ß" d="M181 596v-596h-101v587q0 68 46 106t122 38h130q68 0 109 -36.5t41 -97.5v-36q0 -37 -24 -64t-60 -27h-2q23 -3 38.5 -8.5t33.5 -20t27 -44.5t9 -75v-132q0 -97 -42.5 -143.5t-146.5 -46.5h-123v78h142q29 0 46 28t17 65v178q0 42 -21.5 73.5t-51.5 31.5h-132v77h138 q28 0 40.5 18.5t12.5 43.5t-12.5 43t-40.5 18h-150q-25 0 -35 -14t-10 -44z"/>
<glyph glyph-name="agrave" d="M374 591l-228 72l37 75l209 -99zM161 131q0 -30 10 -42t35 -12h164q21 0 29.5 8t10.5 27v132h-209q-22 -1 -31 -13.5t-9 -40.5v-59zM60 144v33q0 69 42.5 106.5t118.5 37.5h189v89q0 44 -35 44h-261v77h225q77 0 124 -38t47 -106v-387h-100v61q-16 -40 -51.5 -50.5 t-106.5 -10.5h-31q-76 0 -118.5 37.5t-42.5 106.5z" unicode="à"/>
<glyph glyph-name="aacute" d="M417 663l-228 -72l-18 48l209 99zM161 131q0 -30 10 -42t35 -12h164q21 0 29.5 8t10.5 27v132h-209q-22 -1 -31 -13.5t-9 -40.5v-59zM60 144v33q0 69 42.5 106.5t118.5 37.5h189v89q0 44 -35 44h-261v77h225q77 0 124 -38t47 -106v-387h-100v61q-16 -40 -51.5 -50.5 t-106.5 -10.5h-31q-76 0 -118.5 37.5t-42.5 106.5z" unicode="á"/>
<glyph glyph-name="acircumflex" d="M285 695l-120 -104h-75l145 150h100l145 -150h-75zM161 131q0 -30 10 -42t35 -12h164q21 0 29.5 8t10.5 27v132h-209q-22 -1 -31 -13.5t-9 -40.5v-59zM60 144v33q0 69 42.5 106.5t118.5 37.5h189v89q0 44 -35 44h-261v77h225q77 0 124 -38t47 -106v-387h-100v61 q-16 -40 -51.5 -50.5t-106.5 -10.5h-31q-76 0 -118.5 37.5t-42.5 106.5z" unicode="â"/>
<glyph glyph-name="atilde" d="M377 591q-38 0 -73.5 16t-63.5 32t-48 16q-26 0 -41 -12.5t-28 -39.5l-43 24q22 53 50 76.5t66 23.5q48 0 104.5 -32.5t78.5 -32.5q26 0 40.5 12.5t27.5 40.5l43 -25q-41 -99 -113 -99zM161 131q0 -30 10 -42t35 -12h164q21 0 29.5 8t10.5 27v132h-209q-22 -1 -31 -13.5 t-9 -40.5v-59zM60 144v33q0 69 42.5 106.5t118.5 37.5h189v89q0 44 -35 44h-261v77h225q77 0 124 -38t47 -106v-387h-100v61q-16 -40 -51.5 -50.5t-106.5 -10.5h-31q-76 0 -118.5 37.5t-42.5 106.5z" unicode="ã"/>
<glyph glyph-name="adieresis" d="M310 591v111h121v-111h-121zM139 591v111h121v-111h-121zM161 131q0 -30 10 -42t35 -12h164q21 0 29.5 8t10.5 27v132h-209q-22 -1 -31 -13.5t-9 -40.5v-59zM60 144v33q0 69 42.5 106.5t118.5 37.5h189v89q0 44 -35 44h-261v77h225q77 0 124 -38t47 -106v-387h-100v61 q-16 -40 -51.5 -50.5t-106.5 -10.5h-31q-76 0 -118.5 37.5t-42.5 106.5z" unicode="ä"/>
<glyph glyph-name="aring" d="M285 640q17 0 27 9t10 24q0 33 -37 33t-37 -33q0 -15 10 -24t27 -9zM285 755q96 0 96 -82t-96 -82t-96 82t96 82zM161 131q0 -30 10 -42t35 -12h164q21 0 29.5 8t10.5 27v132h-209q-22 -1 -31 -13.5t-9 -40.5v-59zM60 144v33q0 69 42.5 106.5t118.5 37.5h189v89 q0 44 -35 44h-261v77h225q77 0 124 -38t47 -106v-387h-100v61q-16 -40 -51.5 -50.5t-106.5 -10.5h-31q-76 0 -118.5 37.5t-42.5 106.5z" unicode="å"/>
<glyph glyph-name="ae" horiz-adv-x="939" unicode="æ" d="M738 454h-185q-43 0 -43 -44v-105h263v105q0 44 -35 44zM196 238q-24 0 -29.5 -7t-5.5 -27v-83q0 -14 1.5 -21.5t9.5 -15t24 -7.5h138q75 0 75 44v117h-213zM100 531h244q103 0 119 -43q16 43 122 43h118q77 0 124 -38t47 -106v-159h-364v-107q0 -27 13 -35.5t42 -8.5 h309v-77h-309q-60 0 -108 35q-28 -23 -44 -28q-22 -7 -69 -7h-113q-77 0 -124 38t-47 106v43q0 128 171 128h178v95q0 44 -75 44h-234v77z"/>
<glyph glyph-name="ccedilla" horiz-adv-x="510" unicode="ç" d="M320 -107q1 3 1 9q0 13 -8.5 22t-24.5 9h-60l12 67h-19q-76 0 -118.5 37.5t-42.5 106.5v243q0 69 42.5 106.5t118.5 37.5h239v-77h-254q-25 0 -35 -12t-10 -42v-269q0 -30 10 -42t35 -12h254v-77h-160l-4 -29q50 0 74 -14.5t24 -52.5v-11q-8 -90 -111 -90h-72l11 46h52 q38 0 46 44z"/>
<glyph glyph-name="egrave" horiz-adv-x="585" unicode="è" d="M381 591l-228 72l37 75l209 -99zM424 305v105q0 44 -35 44h-193q-35 0 -35 -44v-105h263zM525 228h-364v-107q0 -44 35 -44h329v-77h-294q-77 0 -124 38t-47 106v243q0 68 47 106t124 38h123q77 0 124 -38t47 -106v-159z"/>
<glyph glyph-name="eacute" horiz-adv-x="585" unicode="é" d="M424 663l-228 -72l-18 48l209 99zM424 305v105q0 44 -35 44h-193q-35 0 -35 -44v-105h263zM525 228h-364v-107q0 -44 35 -44h329v-77h-294q-77 0 -124 38t-47 106v243q0 68 47 106t124 38h123q77 0 124 -38t47 -106v-159z"/>
<glyph glyph-name="ecircumflex" horiz-adv-x="585" unicode="ê" d="M292 695l-120 -104h-75l145 150h100l145 -150h-75zM424 305v105q0 44 -35 44h-193q-35 0 -35 -44v-105h263zM525 228h-364v-107q0 -44 35 -44h329v-77h-294q-77 0 -124 38t-47 106v243q0 68 47 106t124 38h123q77 0 124 -38t47 -106v-159z"/>
<glyph glyph-name="edieresis" horiz-adv-x="585" unicode="ë" d="M317 591v111h121v-111h-121zM146 591v111h121v-111h-121zM424 305v105q0 44 -35 44h-193q-35 0 -35 -44v-105h263zM525 228h-364v-107q0 -44 35 -44h329v-77h-294q-77 0 -124 38t-47 106v243q0 68 47 106t124 38h123q77 0 124 -38t47 -106v-159z"/>
<glyph glyph-name="igrave" horiz-adv-x="261" unicode="ì" d="M219 591l-228 72l37 75l209 -99zM80 0v531h101v-531h-101z"/>
<glyph glyph-name="iacute" horiz-adv-x="261" unicode="í" d="M262 663l-228 -72l-18 48l209 99zM80 0v531h101v-531h-101z"/>
<glyph glyph-name="icircumflex" horiz-adv-x="261" unicode="î" d="M130 695l-120 -104h-75l145 150h100l145 -150h-75zM80 0v531h101v-531h-101z"/>
<glyph glyph-name="idieresis" horiz-adv-x="261" unicode="ï" d="M155 591v111h121v-111h-121zM-16 591v111h121v-111h-121zM80 0v531h101v-531h-101z"/>
<glyph glyph-name="eth" horiz-adv-x="599" unicode="ð" d="M150 131q0 -30 10 -42t35 -12h169q25 0 35 12t10 42v269q0 30 -10 42t-35 12h-169q-25 0 -35 -12t-10 -42v-269zM250 561l-18 48l81 25q-39 46 -97 97h109q31 -28 67 -72l109 34l18 -48l-94 -30q74 -109 74 -204v-267q0 -67 -50 -105.5t-123 -38.5h-105 q-76 0 -118.5 37.5t-42.5 106.5v243q0 69 42.5 106.5t118.5 37.5h57q55 0 78 -13t43 -45h4q0 45 -55 118z"/>
<glyph glyph-name="ntilde" d="M397 591q-38 0 -73.5 16t-63.5 32t-48 16q-26 0 -41 -12.5t-28 -39.5l-43 24q22 53 50 76.5t66 23.5q48 0 104.5 -32.5t78.5 -32.5q26 0 40.5 12.5t27.5 40.5l43 -25q-41 -99 -113 -99zM80 0v531h100v-61q16 40 51.5 50.5t106.5 10.5h31q76 0 118.5 -37.5t42.5 -106.5 v-387h-101v400q0 28 -9 40.5t-31 13.5h-168q-22 -1 -31 -13.5t-9 -40.5v-400h-101z" unicode="ñ"/>
<glyph glyph-name="ograve" horiz-adv-x="588" unicode="ò" d="M383 591l-228 72l37 75l209 -99zM161 131q0 -30 10 -42t35 -12h176q25 0 35 12t10 42v269q0 30 -10 42t-35 12h-176q-25 0 -35 -12t-10 -42v-269zM528 387v-243q0 -69 -42.5 -106.5t-117.5 -37.5h-148q-75 0 -117.5 37.5t-42.5 106.5v243q0 69 42.5 106.5t117.5 37.5h148 q75 0 117.5 -37.5t42.5 -106.5z"/>
<glyph glyph-name="oacute" horiz-adv-x="588" unicode="ó" d="M426 663l-228 -72l-18 48l209 99zM161 131q0 -30 10 -42t35 -12h176q25 0 35 12t10 42v269q0 30 -10 42t-35 12h-176q-25 0 -35 -12t-10 -42v-269zM528 387v-243q0 -69 -42.5 -106.5t-117.5 -37.5h-148q-75 0 -117.5 37.5t-42.5 106.5v243q0 69 42.5 106.5t117.5 37.5 h148q75 0 117.5 -37.5t42.5 -106.5z"/>
<glyph glyph-name="ocircumflex" horiz-adv-x="588" unicode="ô" d="M294 695l-120 -104h-75l145 150h100l145 -150h-75zM161 131q0 -30 10 -42t35 -12h176q25 0 35 12t10 42v269q0 30 -10 42t-35 12h-176q-25 0 -35 -12t-10 -42v-269zM528 387v-243q0 -69 -42.5 -106.5t-117.5 -37.5h-148q-75 0 -117.5 37.5t-42.5 106.5v243 q0 69 42.5 106.5t117.5 37.5h148q75 0 117.5 -37.5t42.5 -106.5z"/>
<glyph glyph-name="otilde" horiz-adv-x="588" unicode="õ" d="M386 591q-38 0 -73.5 16t-63.5 32t-48 16q-26 0 -41 -12.5t-28 -39.5l-43 24q22 53 50 76.5t66 23.5q48 0 104.5 -32.5t78.5 -32.5q26 0 40.5 12.5t27.5 40.5l43 -25q-41 -99 -113 -99zM161 131q0 -30 10 -42t35 -12h176q25 0 35 12t10 42v269q0 30 -10 42t-35 12h-176 q-25 0 -35 -12t-10 -42v-269zM528 387v-243q0 -69 -42.5 -106.5t-117.5 -37.5h-148q-75 0 -117.5 37.5t-42.5 106.5v243q0 69 42.5 106.5t117.5 37.5h148q75 0 117.5 -37.5t42.5 -106.5z"/>
<glyph glyph-name="odieresis" horiz-adv-x="588" unicode="ö" d="M319 591v111h121v-111h-121zM148 591v111h121v-111h-121zM161 131q0 -30 10 -42t35 -12h176q25 0 35 12t10 42v269q0 30 -10 42t-35 12h-176q-25 0 -35 -12t-10 -42v-269zM528 387v-243q0 -69 -42.5 -106.5t-117.5 -37.5h-148q-75 0 -117.5 37.5t-42.5 106.5v243 q0 69 42.5 106.5t117.5 37.5h148q75 0 117.5 -37.5t42.5 -106.5z"/>
<glyph glyph-name="divide" horiz-adv-x="547" unicode="÷" d="M50 267v85h447v-85h-447zM219 404v111h121v-111h-121zM219 103v111h121v-111h-121z"/>
<glyph glyph-name="oslash" horiz-adv-x="588" unicode="ø" d="M382 77q25 0 35 12t10 42v190l-266 -204q2 -22 12.5 -31t32.5 -9h176zM161 400v-194l266 205q-1 23 -11.5 33t-33.5 10h-176q-25 0 -35 -12t-10 -42zM528 387v-243q0 -69 -42.5 -106.5t-117.5 -37.5h-148q-94 0 -136 57l-74 -57v90l50 39v15v243q0 69 42.5 106.5 t117.5 37.5h148q97 0 137 -60l78 60v-90l-56 -43q0 -2 0.5 -5.5t0.5 -5.5z"/>
<glyph glyph-name="ugrave" d="M374 591l-228 72l37 75l209 -99zM221 0q-76 0 -118.5 37.5t-42.5 106.5v387h101v-400q0 -28 9 -40.5t31 -13.5h168q22 1 31 13.5t9 40.5v400h101v-531h-100v61q-16 -40 -51.5 -50.5t-106.5 -10.5h-31z" unicode="ù"/>
<glyph glyph-name="uacute" d="M417 663l-228 -72l-18 48l209 99zM221 0q-76 0 -118.5 37.5t-42.5 106.5v387h101v-400q0 -28 9 -40.5t31 -13.5h168q22 1 31 13.5t9 40.5v400h101v-531h-100v61q-16 -40 -51.5 -50.5t-106.5 -10.5h-31z" unicode="ú"/>
<glyph glyph-name="ucircumflex" d="M285 695l-120 -104h-75l145 150h100l145 -150h-75zM221 0q-76 0 -118.5 37.5t-42.5 106.5v387h101v-400q0 -28 9 -40.5t31 -13.5h168q22 1 31 13.5t9 40.5v400h101v-531h-100v61q-16 -40 -51.5 -50.5t-106.5 -10.5h-31z" unicode="û"/>
<glyph glyph-name="udieresis" d="M310 591v111h121v-111h-121zM139 591v111h121v-111h-121zM221 0q-76 0 -118.5 37.5t-42.5 106.5v387h101v-400q0 -28 9 -40.5t31 -13.5h168q22 1 31 13.5t9 40.5v400h101v-531h-100v61q-16 -40 -51.5 -50.5t-106.5 -10.5h-31z" unicode="ü"/>
<glyph glyph-name="yacute" horiz-adv-x="549" unicode="ý" d="M406 663l-228 -72l-18 48l209 99zM529 531l-253 -711h-82l38 114l-212 597h99l155 -455l156 455h99z"/>
<glyph glyph-name="thorn" d="M181 400v-288q2 -19 10.5 -27t29.5 -8h163q25 0 35 12t10 42v269q0 28 -9 40.5t-31 13.5h-168q-22 -1 -31 -13.5t-9 -40.5zM80 -180v911h100v-261q17 61 118 61h71q76 0 118.5 -37.5t42.5 -106.5v-243q0 -69 -42.5 -106.5t-118.5 -37.5h-71q-93 0 -118 61v-241h-100z" unicode="þ"/>
<glyph glyph-name="Amacron" horiz-adv-x="636" unicode="Ā" d="M144 701v80h348v-80h-348zM318 570l-119 -337h238zM10 0l239 661h137l240 -661h-108l-52 148h-297l-52 -148h-107z"/>
<glyph glyph-name="amacron" d="M111 591v80h348v-80h-348zM161 131q0 -30 10 -42t35 -12h164q21 0 29.5 8t10.5 27v132h-209q-22 -1 -31 -13.5t-9 -40.5v-59zM60 144v33q0 69 42.5 106.5t118.5 37.5h189v89q0 44 -35 44h-261v77h225q77 0 124 -38t47 -106v-387h-100v61q-16 -40 -51.5 -50.5 t-106.5 -10.5h-31q-76 0 -118.5 37.5t-42.5 106.5z" unicode="ā"/>
<glyph glyph-name="Abreve" horiz-adv-x="636" unicode="Ă" d="M333 701h-31q-72 2 -117 34t-45 88h85q0 -22 21 -44t72 -22t72 22t21 44h85q0 -56 -45.5 -88t-117.5 -34zM318 570l-119 -337h238zM10 0l239 661h137l240 -661h-108l-52 148h-297l-52 -148h-107z"/>
<glyph glyph-name="abreve" d="M300 591h-31q-72 2 -117 34t-45 88h85q0 -22 21 -44t72 -22t72 22t21 44h85q0 -56 -45.5 -88t-117.5 -34zM161 131q0 -30 10 -42t35 -12h164q21 0 29.5 8t10.5 27v132h-209q-22 -1 -31 -13.5t-9 -40.5v-59zM60 144v33q0 69 42.5 106.5t118.5 37.5h189v89q0 44 -35 44 h-261v77h225q77 0 124 -38t47 -106v-387h-100v61q-16 -40 -51.5 -50.5t-106.5 -10.5h-31q-76 0 -118.5 37.5t-42.5 106.5z" unicode="ă"/>
<glyph glyph-name="Aogonek" horiz-adv-x="636" unicode="Ą" d="M318 570l-119 -337h238zM552 -80q-2 -12 -2 -17q0 -24 14.5 -39t39.5 -15h15v-46h-28q-48 0 -76.5 25t-28.5 65q0 14 2 22q4 20 17 37t26 26.5t34 21.5h-47l-52 148h-297l-52 -148h-107l239 661h137l240 -661q-66 -40 -74 -80z"/>
<glyph glyph-name="aogonek" d="M161 131q0 -30 10 -42t35 -12h164q21 0 29.5 8t10.5 27v132h-209q-22 -1 -31 -13.5t-9 -40.5v-59zM436 -80q-2 -12 -2 -17q0 -24 14.5 -39t39.5 -15h15v-46h-28q-48 0 -76.5 25t-28.5 65q0 14 2 22q4 20 17 37t26 26.5t34 21.5h-39v61q-16 -40 -51.5 -50.5t-106.5 -10.5 h-31q-76 0 -118.5 37.5t-42.5 106.5v33q0 69 42.5 106.5t118.5 37.5h189v89q0 44 -35 44h-261v77h225q77 0 124 -38t47 -106v-387q-66 -40 -74 -80z" unicode="ą"/>
<glyph glyph-name="Cacute" horiz-adv-x="574" unicode="Ć" d="M444 773l-228 -72l-18 48l209 99zM187 148q0 -34 11.5 -48.5t41.5 -14.5h304v-85h-275q-89 0 -139 44t-50 126v321q0 82 50 126t139 44h275v-85h-304q-30 0 -41.5 -14.5t-11.5 -48.5v-365z"/>
<glyph glyph-name="cacute" horiz-adv-x="510" unicode="ć" d="M397 663l-228 -72l-18 48l209 99zM161 131q0 -30 10 -42t35 -12h254v-77h-239q-76 0 -118.5 37.5t-42.5 106.5v243q0 69 42.5 106.5t118.5 37.5h239v-77h-254q-25 0 -35 -12t-10 -42v-269z"/>
<glyph glyph-name="Ccircumflex" horiz-adv-x="574" unicode="Ĉ" d="M312 805l-120 -104h-75l145 150h100l145 -150h-75zM187 148q0 -34 11.5 -48.5t41.5 -14.5h304v-85h-275q-89 0 -139 44t-50 126v321q0 82 50 126t139 44h275v-85h-304q-30 0 -41.5 -14.5t-11.5 -48.5v-365z"/>
<glyph glyph-name="ccircumflex" horiz-adv-x="510" unicode="ĉ" d="M265 695l-120 -104h-75l145 150h100l145 -150h-75zM161 131q0 -30 10 -42t35 -12h254v-77h-239q-76 0 -118.5 37.5t-42.5 106.5v243q0 69 42.5 106.5t118.5 37.5h239v-77h-254q-25 0 -35 -12t-10 -42v-269z"/>
<glyph glyph-name="Cdotaccent" horiz-adv-x="574" unicode="Ċ" d="M252 701v111h121v-111h-121zM187 148q0 -34 11.5 -48.5t41.5 -14.5h304v-85h-275q-89 0 -139 44t-50 126v321q0 82 50 126t139 44h275v-85h-304q-30 0 -41.5 -14.5t-11.5 -48.5v-365z"/>
<glyph glyph-name="cdotaccent" horiz-adv-x="510" unicode="ċ" d="M205 591v111h121v-111h-121zM161 131q0 -30 10 -42t35 -12h254v-77h-239q-76 0 -118.5 37.5t-42.5 106.5v243q0 69 42.5 106.5t118.5 37.5h239v-77h-254q-25 0 -35 -12t-10 -42v-269z"/>
<glyph glyph-name="Ccaron" horiz-adv-x="574" unicode="Č" d="M192 851l120 -104l120 104h75l-145 -150h-100l-145 150h75zM187 148q0 -34 11.5 -48.5t41.5 -14.5h304v-85h-275q-89 0 -139 44t-50 126v321q0 82 50 126t139 44h275v-85h-304q-30 0 -41.5 -14.5t-11.5 -48.5v-365z"/>
<glyph glyph-name="ccaron" horiz-adv-x="510" unicode="č" d="M145 741l120 -104l120 104h75l-145 -150h-100l-145 150h75zM161 131q0 -30 10 -42t35 -12h254v-77h-239q-76 0 -118.5 37.5t-42.5 106.5v243q0 69 42.5 106.5t118.5 37.5h239v-77h-254q-25 0 -35 -12t-10 -42v-269z"/>
<glyph glyph-name="Dcaron" horiz-adv-x="668" unicode="Ď" d="M214 861l120 -104l120 104h75l-145 -150h-100l-145 150h75zM187 576v-491h251q63 0 63 63v365q0 63 -63 63h-251zM608 491v-321q0 -81 -54.5 -125.5t-144.5 -44.5h-329v661h329q90 0 144.5 -44.5t54.5 -125.5z"/>
<glyph glyph-name="dcaron" horiz-adv-x="861" unicode="ď" d="M690 571v111h121v-111l-110 -129h-61zM409 112v288q0 28 -9 40.5t-31 13.5h-168q-22 -1 -31 -13.5t-9 -40.5v-269q0 -30 10 -42t35 -12h163q21 0 29.5 8t10.5 27zM510 731v-731h-100v61q-16 -40 -51.5 -50.5t-106.5 -10.5h-31q-76 0 -118.5 37.5t-42.5 106.5v243 q0 69 42.5 106.5t118.5 37.5h31q71 0 106.5 -10.5t51.5 -50.5v261h100z"/>
<glyph glyph-name="Dcroat" horiz-adv-x="668" unicode="Đ" d="M187 576v-198h172v-80h-172v-213h251q63 0 63 63v365q0 63 -63 63h-251zM11 298v80h69v283h329q90 0 144.5 -44.5t54.5 -125.5v-321q0 -81 -54.5 -125.5t-144.5 -44.5h-329v298h-69z"/>
<glyph glyph-name="dcroat" d="M409 112v288q0 28 -9 40.5t-31 13.5h-168q-22 -1 -31 -13.5t-9 -40.5v-269q0 -30 10 -42t35 -12h163q21 0 29.5 8t10.5 27zM510 731v-70h43v-80h-43v-581h-100v61q-16 -40 -51.5 -50.5t-106.5 -10.5h-31q-76 0 -118.5 37.5t-42.5 106.5v243q0 69 42.5 106.5t118.5 37.5 h31q71 0 106.5 -10.5t51.5 -50.5v111h-150v80h150v70h100z" unicode="đ"/>
<glyph glyph-name="Emacron" horiz-adv-x="607" unicode="Ē" d="M134 701v80h348v-80h-348zM80 0v661h457v-85h-350v-191h320v-85h-320v-215h350v-85h-457z"/>
<glyph glyph-name="emacron" horiz-adv-x="585" unicode="ē" d="M118 591v80h348v-80h-348zM424 305v105q0 44 -35 44h-193q-35 0 -35 -44v-105h263zM525 228h-364v-107q0 -44 35 -44h329v-77h-294q-77 0 -124 38t-47 106v243q0 68 47 106t124 38h123q77 0 124 -38t47 -106v-159z"/>
<glyph glyph-name="Ebreve" horiz-adv-x="607" unicode="Ĕ" d="M323 701h-31q-72 2 -117 34t-45 88h85q0 -22 21 -44t72 -22t72 22t21 44h85q0 -56 -45.5 -88t-117.5 -34zM80 0v661h457v-85h-350v-191h320v-85h-320v-215h350v-85h-457z"/>
<glyph glyph-name="ebreve" horiz-adv-x="585" unicode="ĕ" d="M307 591h-31q-72 2 -117 34t-45 88h85q0 -22 21 -44t72 -22t72 22t21 44h85q0 -56 -45.5 -88t-117.5 -34zM424 305v105q0 44 -35 44h-193q-35 0 -35 -44v-105h263zM525 228h-364v-107q0 -44 35 -44h329v-77h-294q-77 0 -124 38t-47 106v243q0 68 47 106t124 38h123 q77 0 124 -38t47 -106v-159z"/>
<glyph glyph-name="Edotaccent" horiz-adv-x="607" unicode="Ė" d="M248 701v111h121v-111h-121zM80 0v661h457v-85h-350v-191h320v-85h-320v-215h350v-85h-457z"/>
<glyph glyph-name="edotaccent" horiz-adv-x="585" unicode="ė" d="M232 591v111h121v-111h-121zM424 305v105q0 44 -35 44h-193q-35 0 -35 -44v-105h263zM525 228h-364v-107q0 -44 35 -44h329v-77h-294q-77 0 -124 38t-47 106v243q0 68 47 106t124 38h123q77 0 124 -38t47 -106v-159z"/>
<glyph glyph-name="Eogonek" horiz-adv-x="607" unicode="Ę" d="M80 0v661h457v-85h-350v-191h320v-85h-320v-215h350v-85q-66 -40 -74 -80q-2 -12 -2 -17q0 -24 14.5 -39t39.5 -15h15v-46h-28q-48 0 -76.5 25t-28.5 65q0 14 2 22q4 20 17 37t26 26.5t34 21.5h-396z"/>
<glyph glyph-name="eogonek" horiz-adv-x="585" unicode="ę" d="M424 305v105q0 44 -35 44h-193q-35 0 -35 -44v-105h263zM451 -80q-2 -12 -2 -17q0 -24 14.5 -39t39.5 -15h15v-46h-28q-48 0 -76.5 25t-28.5 65q0 14 2 22q4 20 17 37t26 26.5t34 21.5h-233q-77 0 -124 38t-47 106v243q0 68 47 106t124 38h123q77 0 124 -38t47 -106v-159 h-364v-107q0 -44 35 -44h329v-77q-66 -40 -74 -80z"/>
<glyph glyph-name="Ecaron" horiz-adv-x="607" unicode="Ě" d="M188 851l120 -104l120 104h75l-145 -150h-100l-145 150h75zM80 0v661h457v-85h-350v-191h320v-85h-320v-215h350v-85h-457z"/>
<glyph glyph-name="ecaron" horiz-adv-x="585" unicode="ě" d="M172 741l120 -104l120 104h75l-145 -150h-100l-145 150h75zM424 305v105q0 44 -35 44h-193q-35 0 -35 -44v-105h263zM525 228h-364v-107q0 -44 35 -44h329v-77h-294q-77 0 -124 38t-47 106v243q0 68 47 106t124 38h123q77 0 124 -38t47 -106v-159z"/>
<glyph glyph-name="Gcircumflex" horiz-adv-x="654" unicode="Ĝ" d="M332 805l-120 -104h-75l145 150h100l145 -150h-75zM177 148q0 -34 11.5 -48.5t41.5 -14.5h257v266h107v-351h-335q-89 0 -139 44t-50 126v321q0 82 50 126t139 44h335v-85h-364q-30 0 -41.5 -14.5t-11.5 -48.5v-365z"/>
<glyph glyph-name="gcircumflex" d="M285 695l-120 -104h-75l145 150h100l145 -150h-75zM409 112v288q0 28 -9 40.5t-31 13.5h-168q-22 -1 -31 -13.5t-9 -40.5v-269q0 -30 10 -42t35 -12h163q21 0 29.5 8t10.5 27zM410 -67v128q-16 -40 -51.5 -50.5t-106.5 -10.5h-31q-76 0 -118.5 37.5t-42.5 106.5v243 q0 69 42.5 106.5t118.5 37.5h31q71 0 106.5 -10.5t51.5 -50.5v61h100v-547q0 -81 -47 -122.5t-131 -41.5h-244v77h276h12q20 0 27 6t7 30z" unicode="ĝ"/>
<glyph glyph-name="Gbreve" horiz-adv-x="654" unicode="Ğ" d="M347 701h-31q-72 2 -117 34t-45 88h85q0 -22 21 -44t72 -22t72 22t21 44h85q0 -56 -45.5 -88t-117.5 -34zM177 148q0 -34 11.5 -48.5t41.5 -14.5h257v266h107v-351h-335q-89 0 -139 44t-50 126v321q0 82 50 126t139 44h335v-85h-364q-30 0 -41.5 -14.5t-11.5 -48.5v-365z "/>
<glyph glyph-name="gbreve" d="M300 591h-31q-72 2 -117 34t-45 88h85q0 -22 21 -44t72 -22t72 22t21 44h85q0 -56 -45.5 -88t-117.5 -34zM409 112v288q0 28 -9 40.5t-31 13.5h-168q-22 -1 -31 -13.5t-9 -40.5v-269q0 -30 10 -42t35 -12h163q21 0 29.5 8t10.5 27zM410 -67v128q-16 -40 -51.5 -50.5 t-106.5 -10.5h-31q-76 0 -118.5 37.5t-42.5 106.5v243q0 69 42.5 106.5t118.5 37.5h31q71 0 106.5 -10.5t51.5 -50.5v61h100v-547q0 -81 -47 -122.5t-131 -41.5h-244v77h276h12q20 0 27 6t7 30z" unicode="ğ"/>
<glyph glyph-name="Gdotaccent" horiz-adv-x="654" unicode="Ġ" d="M272 701v111h121v-111h-121zM177 148q0 -34 11.5 -48.5t41.5 -14.5h257v266h107v-351h-335q-89 0 -139 44t-50 126v321q0 82 50 126t139 44h335v-85h-364q-30 0 -41.5 -14.5t-11.5 -48.5v-365z"/>
<glyph glyph-name="gdotaccent" d="M225 591v111h121v-111h-121zM409 112v288q0 28 -9 40.5t-31 13.5h-168q-22 -1 -31 -13.5t-9 -40.5v-269q0 -30 10 -42t35 -12h163q21 0 29.5 8t10.5 27zM410 -67v128q-16 -40 -51.5 -50.5t-106.5 -10.5h-31q-76 0 -118.5 37.5t-42.5 106.5v243q0 69 42.5 106.5 t118.5 37.5h31q71 0 106.5 -10.5t51.5 -50.5v61h100v-547q0 -81 -47 -122.5t-131 -41.5h-244v77h276h12q20 0 27 6t7 30z" unicode="ġ"/>
<glyph glyph-name="Gcommaaccent" horiz-adv-x="654" unicode="Ģ" d="M291 -111v81h121v-81l-110 -109h-61zM177 148q0 -34 11.5 -48.5t41.5 -14.5h257v266h107v-351h-335q-89 0 -139 44t-50 126v321q0 82 50 126t139 44h335v-85h-364q-30 0 -41.5 -14.5t-11.5 -48.5v-365z"/>
<glyph glyph-name="gcommaaccent" d="M409 112v288q0 28 -9 40.5t-31 13.5h-168q-22 -1 -31 -13.5t-9 -40.5v-269q0 -30 10 -42t35 -12h163q21 0 29.5 8t10.5 27zM410 -67v128q-16 -40 -51.5 -50.5t-106.5 -10.5h-31q-76 0 -118.5 37.5t-42.5 106.5v243q0 69 42.5 106.5t118.5 37.5h31q71 0 106.5 -10.5 t51.5 -50.5v61h100v-547q0 -81 -47 -122.5t-131 -41.5h-244v77h276h12q20 0 27 6t7 30zM341 682v-111h-121v111l110 129h61z" unicode="ģ"/>
<glyph glyph-name="Hcircumflex" horiz-adv-x="732" unicode="Ĥ" d="M366 815l-120 -104h-75l145 150h100l145 -150h-75zM545 0v279h-358v-279h-107v661h107v-297h358v297h107v-661h-107z"/>
<glyph glyph-name="hcircumflex" d="M134 835l-120 -104h-75l145 150h100l145 -150h-75zM80 0v731h100v-261q16 40 51.5 50.5t106.5 10.5h31q76 0 118.5 -37.5t42.5 -106.5v-387h-101v400q0 28 -9 40.5t-31 13.5h-168q-22 -1 -31 -13.5t-9 -40.5v-400h-101z" unicode="ĥ"/>
<glyph glyph-name="Hbar" horiz-adv-x="732" unicode="Ħ" d="M187 364h358v117h-358v-117zM545 0v279h-358v-279h-107v481h-50v81h50v99h107v-99h358v99h107v-99h44v-81h-44v-481h-107z"/>
<glyph glyph-name="hbar" horiz-adv-x="591" unicode="ħ" d="M20 581v80h61v70h100v-70h132v-80h-132v-111q16 40 51.5 50.5t106.5 10.5h31q76 0 118.5 -37.5t42.5 -106.5v-387h-101v400q0 28 -9 40.5t-31 13.5h-168q-22 -1 -31 -13.5t-9 -40.5v-400h-101v581h-61z"/>
<glyph glyph-name="Itilde" horiz-adv-x="267" unicode="Ĩ" d="M225 701q-38 0 -73.5 16t-63.5 32t-48 16q-26 0 -41 -12.5t-28 -39.5l-43 24q22 53 50 76.5t66 23.5q48 0 104.5 -32.5t78.5 -32.5q26 0 40.5 12.5t27.5 40.5l43 -25q-41 -99 -113 -99zM80 0v661h107v-661h-107z"/>
<glyph glyph-name="itilde" horiz-adv-x="261" unicode="ĩ" d="M222 591q-38 0 -73.5 16t-63.5 32t-48 16q-26 0 -41 -12.5t-28 -39.5l-43 24q22 53 50 76.5t66 23.5q48 0 104.5 -32.5t78.5 -32.5q26 0 40.5 12.5t27.5 40.5l43 -25q-41 -99 -113 -99zM80 0v531h101v-531h-101z"/>
<glyph glyph-name="Imacron" horiz-adv-x="267" unicode="Ī" d="M-41 701v80h348v-80h-348zM80 0v661h107v-661h-107z"/>
<glyph glyph-name="imacron" horiz-adv-x="261" unicode="ī" d="M-44 591v80h348v-80h-348zM80 0v531h101v-531h-101z"/>
<glyph glyph-name="Ibreve" horiz-adv-x="267" unicode="Ĭ" d="M148 701h-31q-72 2 -117 34t-45 88h85q0 -22 21 -44t72 -22t72 22t21 44h85q0 -56 -45.5 -88t-117.5 -34zM80 0v661h107v-661h-107z"/>
<glyph glyph-name="ibreve" horiz-adv-x="261" unicode="ĭ" d="M145 591h-31q-72 2 -117 34t-45 88h85q0 -22 21 -44t72 -22t72 22t21 44h85q0 -56 -45.5 -88t-117.5 -34zM80 0v531h101v-531h-101z"/>
<glyph glyph-name="Iogonek" horiz-adv-x="267" unicode="Į" d="M80 0v661h107v-661q-66 -40 -74 -80q-2 -12 -2 -17q0 -24 14.5 -39t39.5 -15h15v-46h-28q-48 0 -76.5 25t-28.5 65q0 14 2 22q4 20 17 37t26 26.5t34 21.5h-46z"/>
<glyph glyph-name="iogonek" horiz-adv-x="281" unicode="į" d="M80 620v111h121v-111h-121zM90 0v531h101v-531q-66 -40 -74 -80q-2 -12 -2 -17q0 -24 14.5 -39t39.5 -15h15v-46h-28q-48 0 -76.5 25t-28.5 65q0 14 2 22q4 20 17 37t26 26.5t34 21.5h-40z"/>
<glyph glyph-name="Idotaccent" horiz-adv-x="261" unicode="İ" d="M70 701v111h121v-111h-121zM77 0v661h107v-661h-107z"/>
<glyph glyph-name="dotlessi" horiz-adv-x="261" unicode="ı" d="M80 0v531h101v-531h-101z"/>
<glyph glyph-name="Jcircumflex" horiz-adv-x="514" unicode="Ĵ" d="M381 805l-120 -104h-75l145 150h100l145 -150h-75zM327 148v513h107v-491q0 -80 -59 -125t-150 -45h-165v85h214q30 0 41.5 14.5t11.5 48.5z"/>
<glyph glyph-name="jcircumflex" horiz-adv-x="271" unicode="ĵ" d="M132 685l-120 -104h-75l145 150h100l145 -150h-75zM80 -46v577h101v-566q0 -145 -168 -145h-40v77h62q27 0 36 13.5t9 43.5z"/>
<glyph glyph-name="Kcommaaccent" horiz-adv-x="653" unicode="Ķ" d="M291 -111v81h121v-81l-110 -109h-61zM333 343h1l289 -343h-127l-246 288h-63v-288h-107v661h107v-288h63l226 288h124z"/>
<glyph glyph-name="kcommaaccent" horiz-adv-x="589" unicode="ķ" d="M259 -111v81h121v-81l-110 -109h-61zM80 0v731h101v-420h64l173 220h113l-202 -246l210 -285h-116l-178 234h-64v-234h-101z"/>
<glyph glyph-name="Lacute" horiz-adv-x="567" unicode="Ĺ" d="M254 773l-228 -72l-18 48l209 99zM80 0v661h107v-576h350v-85h-457z"/>
<glyph glyph-name="lacute" horiz-adv-x="261" unicode="ĺ" d="M262 863l-228 -72l-18 48l209 99zM80 0v731h101v-731h-101z"/>
<glyph glyph-name="Lcommaaccent" horiz-adv-x="567" unicode="Ļ" d="M248 -111v81h121v-81l-110 -109h-61zM80 0v661h107v-576h350v-85h-457z"/>
<glyph glyph-name="lcommaaccent" horiz-adv-x="261" unicode="ļ" d="M71 -111v81h121v-81l-110 -109h-61zM80 0v731h101v-731h-101z"/>
<glyph glyph-name="Lcaron" horiz-adv-x="567" unicode="Ľ" d="M291 549v111h121v-111l-110 -129h-61zM80 0v661h107v-576h350v-85h-457z"/>
<glyph glyph-name="lcaron" horiz-adv-x="532" unicode="ľ" d="M361 571v111h121v-111l-110 -129h-61zM80 0v731h101v-731h-101z"/>
<glyph glyph-name="Ldot" horiz-adv-x="567" unicode="Ŀ" d="M303 302v111h121v-111h-121zM80 0v661h107v-576h350v-85h-457z"/>
<glyph glyph-name="ldot" horiz-adv-x="482" unicode="ŀ" d="M311 264v111h121v-111h-121zM80 0v731h101v-731h-101z"/>
<glyph glyph-name="Lslash" horiz-adv-x="567" unicode="Ł" d="M80 0v234l-70 -55v85l70 55v342h107v-258l180 141v-85l-180 -141v-233h350v-85h-457z"/>
<glyph glyph-name="lslash" horiz-adv-x="261" unicode="ł" d="M80 0v296l-78 -67v95l78 67v340h101v-254l78 67v-95l-78 -67v-382h-101z"/>
<glyph glyph-name="Nacute" horiz-adv-x="752" unicode="Ń" d="M518 773l-228 -72l-18 48l209 99zM80 0v661h177l308 -587v587h107v-661h-179l-306 587v-587h-107z"/>
<glyph glyph-name="nacute" d="M437 663l-228 -72l-18 48l209 99zM80 0v531h100v-61q16 40 51.5 50.5t106.5 10.5h31q76 0 118.5 -37.5t42.5 -106.5v-387h-101v400q0 28 -9 40.5t-31 13.5h-168q-22 -1 -31 -13.5t-9 -40.5v-400h-101z" unicode="ń"/>
<glyph glyph-name="Ncommaaccent" horiz-adv-x="752" unicode="Ņ" d="M340 -111v81h121v-81l-110 -109h-61zM80 0v661h177l308 -587v587h107v-661h-179l-306 587v-587h-107z"/>
<glyph glyph-name="ncommaaccent" d="M259 -111v81h121v-81l-110 -109h-61zM80 0v531h100v-61q16 40 51.5 50.5t106.5 10.5h31q76 0 118.5 -37.5t42.5 -106.5v-387h-101v400q0 28 -9 40.5t-31 13.5h-168q-22 -1 -31 -13.5t-9 -40.5v-400h-101z" unicode="ņ"/>
<glyph glyph-name="Ncaron" horiz-adv-x="752" unicode="Ň" d="M256 851l120 -104l120 104h75l-145 -150h-100l-145 150h75zM80 0v661h177l308 -587v587h107v-661h-179l-306 587v-587h-107z"/>
<glyph glyph-name="ncaron" d="M185 741l120 -104l120 104h75l-145 -150h-100l-145 150h75zM80 0v531h100v-61q16 40 51.5 50.5t106.5 10.5h31q76 0 118.5 -37.5t42.5 -106.5v-387h-101v400q0 28 -9 40.5t-31 13.5h-168q-22 -1 -31 -13.5t-9 -40.5v-400h-101z" unicode="ň"/>
<glyph glyph-name="Eng" horiz-adv-x="752" unicode="Ŋ" d="M80 0v661h179l306 -591v591h107v-670q0 -80 -59 -125t-150 -45h-165v85h214q30 0 41.5 14.5t11.5 48.5v31h-72l-306 591v-591h-107z"/>
<glyph glyph-name="eng" horiz-adv-x="610" unicode="ŋ" d="M80 0v531h100v-61q16 40 51.5 50.5t106.5 10.5h31q76 0 118.5 -37.5t42.5 -106.5v-422q0 -145 -168 -145h-40v77h62q27 0 36 13.5t9 43.5v446q0 28 -9 40.5t-31 13.5h-168q-22 -1 -31 -13.5t-9 -40.5v-400h-101z"/>
<glyph glyph-name="Omacron" horiz-adv-x="673" unicode="Ō" d="M162 701v80h348v-80h-348zM167 148q0 -34 11.5 -48.5t41.5 -14.5h233q30 0 41.5 14.5t11.5 48.5v365q0 34 -11.5 48.5t-41.5 14.5h-233q-30 0 -41.5 -14.5t-11.5 -48.5v-365zM613 491v-321q0 -82 -50 -126t-139 -44h-175q-89 0 -139 44t-50 126v321q0 82 50 126t139 44 h175q89 0 139 -44t50 -126z"/>
<glyph glyph-name="omacron" horiz-adv-x="588" unicode="ō" d="M120 591v80h348v-80h-348zM161 131q0 -30 10 -42t35 -12h176q25 0 35 12t10 42v269q0 30 -10 42t-35 12h-176q-25 0 -35 -12t-10 -42v-269zM528 387v-243q0 -69 -42.5 -106.5t-117.5 -37.5h-148q-75 0 -117.5 37.5t-42.5 106.5v243q0 69 42.5 106.5t117.5 37.5h148 q75 0 117.5 -37.5t42.5 -106.5z"/>
<glyph glyph-name="Obreve" horiz-adv-x="673" unicode="Ŏ" d="M351 701h-31q-72 2 -117 34t-45 88h85q0 -22 21 -44t72 -22t72 22t21 44h85q0 -56 -45.5 -88t-117.5 -34zM167 148q0 -34 11.5 -48.5t41.5 -14.5h233q30 0 41.5 14.5t11.5 48.5v365q0 34 -11.5 48.5t-41.5 14.5h-233q-30 0 -41.5 -14.5t-11.5 -48.5v-365zM613 491v-321 q0 -82 -50 -126t-139 -44h-175q-89 0 -139 44t-50 126v321q0 82 50 126t139 44h175q89 0 139 -44t50 -126z"/>
<glyph glyph-name="obreve" horiz-adv-x="588" unicode="ŏ" d="M309 591h-31q-72 2 -117 34t-45 88h85q0 -22 21 -44t72 -22t72 22t21 44h85q0 -56 -45.5 -88t-117.5 -34zM161 131q0 -30 10 -42t35 -12h176q25 0 35 12t10 42v269q0 30 -10 42t-35 12h-176q-25 0 -35 -12t-10 -42v-269zM528 387v-243q0 -69 -42.5 -106.5t-117.5 -37.5 h-148q-75 0 -117.5 37.5t-42.5 106.5v243q0 69 42.5 106.5t117.5 37.5h148q75 0 117.5 -37.5t42.5 -106.5z"/>
<glyph glyph-name="Ohungarumlaut" horiz-adv-x="673" unicode="Ő" d="M518 811l-147 -110l-40 40l127 126zM342 811l-147 -110l-40 40l127 126zM167 148q0 -34 11.5 -48.5t41.5 -14.5h233q30 0 41.5 14.5t11.5 48.5v365q0 34 -11.5 48.5t-41.5 14.5h-233q-30 0 -41.5 -14.5t-11.5 -48.5v-365zM613 491v-321q0 -82 -50 -126t-139 -44h-175 q-89 0 -139 44t-50 126v321q0 82 50 126t139 44h175q89 0 139 -44t50 -126z"/>
<glyph glyph-name="ohungarumlaut" horiz-adv-x="588" unicode="ő" d="M476 701l-147 -110l-40 40l127 126zM300 701l-147 -110l-40 40l127 126zM161 131q0 -30 10 -42t35 -12h176q25 0 35 12t10 42v269q0 30 -10 42t-35 12h-176q-25 0 -35 -12t-10 -42v-269zM528 387v-243q0 -69 -42.5 -106.5t-117.5 -37.5h-148q-75 0 -117.5 37.5 t-42.5 106.5v243q0 69 42.5 106.5t117.5 37.5h148q75 0 117.5 -37.5t42.5 -106.5z"/>
<glyph glyph-name="OE" horiz-adv-x="1033" unicode="Œ" d="M167 148q0 -34 11.5 -48.5t41.5 -14.5h233q30 0 41.5 14.5t11.5 48.5v374q-2 29 -14 41.5t-39 12.5h-233q-30 0 -41.5 -14.5t-11.5 -48.5v-365zM60 491q0 82 50 126t139 44h714v-85h-350v-191h320v-85h-320v-215h350v-85h-714q-89 0 -139 44t-50 126v321z"/>
<glyph glyph-name="oe" horiz-adv-x="588" unicode="œ" d="M791 305v105q0 44 -35 44h-193q-35 0 -35 -44v-105h263zM161 131q0 -30 10 -42t35 -12h176q25 0 35 12t10 42v269q0 30 -10 42t-35 12h-176q-25 0 -35 -12t-10 -42v-269zM892 228h-364v-107q0 -44 35 -44h329v-77h-294q-73 0 -118 33q-40 -33 -112 -33h-148 q-75 0 -117.5 37.5t-42.5 106.5v243q0 69 42.5 106.5t117.5 37.5h148q72 0 112 -33q47 33 118 33h123q77 0 124 -38t47 -106v-159z"/>
<glyph glyph-name="Racute" horiz-adv-x="654" unicode="Ŕ" d="M433 773l-228 -72l-18 48l209 99zM187 576v-251h226q53 0 53 43v165q0 43 -53 43h-226zM486 249l128 -249h-116l-112 240h-199v-240h-107v661h286q116 0 161.5 -33.5t45.5 -130.5v-128q0 -52 -26 -82.5t-61 -37.5z"/>
<glyph glyph-name="racute" horiz-adv-x="395" unicode="ŕ" d="M359 663l-228 -72l-18 48l209 99zM181 400v-400h-101v531h100v-61q16 40 51.5 50.5t106.5 10.5h37v-77h-154q-22 -1 -31 -13.5t-9 -40.5z"/>
<glyph glyph-name="Rcommaaccent" horiz-adv-x="654" unicode="Ŗ" d="M291 -111v81h121v-81l-110 -109h-61zM187 576v-251h226q53 0 53 43v165q0 43 -53 43h-226zM486 249l128 -249h-116l-112 240h-199v-240h-107v661h286q116 0 161.5 -33.5t45.5 -130.5v-128q0 -52 -26 -82.5t-61 -37.5z"/>
<glyph glyph-name="rcommaaccent" horiz-adv-x="395" unicode="ŗ" d="M72 -111v81h121v-81l-110 -109h-61zM181 400v-400h-101v531h100v-61q16 40 51.5 50.5t106.5 10.5h37v-77h-154q-22 -1 -31 -13.5t-9 -40.5z"/>
<glyph glyph-name="Rcaron" horiz-adv-x="654" unicode="Ř" d="M181 851l120 -104l120 104h75l-145 -150h-100l-145 150h75zM187 576v-251h226q53 0 53 43v165q0 43 -53 43h-226zM486 249l128 -249h-116l-112 240h-199v-240h-107v661h286q116 0 161.5 -33.5t45.5 -130.5v-128q0 -52 -26 -82.5t-61 -37.5z"/>
<glyph glyph-name="rcaron" horiz-adv-x="395" unicode="ř" d="M107 741l120 -104l120 104h75l-145 -150h-100l-145 150h75zM181 400v-400h-101v531h100v-61q16 40 51.5 50.5t106.5 10.5h37v-77h-154q-22 -1 -31 -13.5t-9 -40.5z"/>
<glyph glyph-name="Sacute" horiz-adv-x="619" unicode="Ś" d="M441 773l-228 -72l-18 48l209 99zM462 120v147l-295 39q-56 7 -86.5 49.5t-30.5 98.5v27q0 87 53 133.5t148 46.5h285v-85h-323q-31 0 -43.5 -7.5t-12.5 -27.5v-141l295 -41q117 -16 117 -152v-27q0 -87 -53 -133.5t-148 -46.5h-305v85h343q31 0 43.5 7.5t12.5 27.5z"/>
<glyph glyph-name="sacute" horiz-adv-x="527" unicode="ś" d="M395 663l-228 -72l-18 48l209 99zM376 105v98l-54 12t-69 16t-79 19q-66 15 -95 37t-29 65v35q0 69 42.5 106.5t118.5 37.5h248v-77h-263q-25 0 -35 -6t-10 -22v-90q49 -12 101 -25.5t88 -22.5q76 -18 106.5 -39.5t30.5 -66.5v-38q0 -69 -42.5 -106.5t-118.5 -37.5h-256 v77h271q25 0 35 6t10 22z"/>
<glyph glyph-name="Scircumflex" horiz-adv-x="619" unicode="Ŝ" d="M309 805l-120 -104h-75l145 150h100l145 -150h-75zM462 120v147l-295 39q-56 7 -86.5 49.5t-30.5 98.5v27q0 87 53 133.5t148 46.5h285v-85h-323q-31 0 -43.5 -7.5t-12.5 -27.5v-141l295 -41q117 -16 117 -152v-27q0 -87 -53 -133.5t-148 -46.5h-305v85h343 q31 0 43.5 7.5t12.5 27.5z"/>
<glyph glyph-name="scircumflex" horiz-adv-x="527" unicode="ŝ" d="M263 695l-120 -104h-75l145 150h100l145 -150h-75zM376 105v98l-54 12t-69 16t-79 19q-66 15 -95 37t-29 65v35q0 69 42.5 106.5t118.5 37.5h248v-77h-263q-25 0 -35 -6t-10 -22v-90q49 -12 101 -25.5t88 -22.5q76 -18 106.5 -39.5t30.5 -66.5v-38q0 -69 -42.5 -106.5 t-118.5 -37.5h-256v77h271q25 0 35 6t10 22z"/>
<glyph glyph-name="Scedilla" horiz-adv-x="619" unicode="Ş" d="M324 -107q1 3 1 9q0 13 -8.5 22t-24.5 9h-60l12 67h-181v85h343q31 0 43.5 7.5t12.5 27.5v147l-295 39q-56 7 -86.5 49.5t-30.5 98.5v27q0 87 53 133.5t148 46.5h285v-85h-323q-31 0 -43.5 -7.5t-12.5 -27.5v-141l295 -41q117 -16 117 -152v-27q0 -87 -53 -133.5 t-148 -46.5h-64l-4 -29q50 0 74 -14.5t24 -52.5v-11q-8 -90 -111 -90h-72l11 46h52q38 0 46 44z"/>
<glyph glyph-name="scedilla" horiz-adv-x="527" unicode="ş" d="M278 -107q1 3 1 9q0 13 -8.5 22t-24.5 9h-60l12 67h-138v77h271q25 0 35 6t10 22v98l-54 12t-69 16t-79 19q-66 15 -95 37t-29 65v35q0 69 42.5 106.5t118.5 37.5h248v-77h-263q-25 0 -35 -6t-10 -22v-90q49 -12 101 -25.5t88 -22.5q76 -18 106.5 -39.5t30.5 -66.5v-38 q0 -69 -42.5 -106.5t-118.5 -37.5h-58l-4 -29q50 0 74 -14.5t24 -52.5v-11q-8 -90 -111 -90h-72l11 46h52q38 0 46 44z"/>
<glyph glyph-name="Scaron" horiz-adv-x="619" unicode="Š" d="M189 851l120 -104l120 104h75l-145 -150h-100l-145 150h75zM462 120v147l-295 39q-56 7 -86.5 49.5t-30.5 98.5v27q0 87 53 133.5t148 46.5h285v-85h-323q-31 0 -43.5 -7.5t-12.5 -27.5v-141l295 -41q117 -16 117 -152v-27q0 -87 -53 -133.5t-148 -46.5h-305v85h343 q31 0 43.5 7.5t12.5 27.5z"/>
<glyph glyph-name="scaron" horiz-adv-x="527" unicode="š" d="M143 741l120 -104l120 104h75l-145 -150h-100l-145 150h75zM376 105v98l-54 12t-69 16t-79 19q-66 15 -95 37t-29 65v35q0 69 42.5 106.5t118.5 37.5h248v-77h-263q-25 0 -35 -6t-10 -22v-90q49 -12 101 -25.5t88 -22.5q76 -18 106.5 -39.5t30.5 -66.5v-38 q0 -69 -42.5 -106.5t-118.5 -37.5h-256v77h271q25 0 35 6t10 22z"/>
<glyph glyph-name="Tcommaaccent" horiz-adv-x="621" unicode="Ţ" d="M248 -111v81h121v-81l-110 -109h-61zM40 580v81h541v-81h-217v-580h-107v580h-217z"/>
<glyph glyph-name="tcommaaccent" horiz-adv-x="418" unicode="ţ" d="M173 -111v81h121v-81l-110 -109h-61zM378 454h-157v-320q0 -30 9 -43.5t36 -13.5h112v-77h-90q-168 0 -168 145v309h-80v77h80l30 130h71v-130h157v-77z"/>
<glyph glyph-name="Tcaron" horiz-adv-x="621" unicode="Ť" d="M190 851l120 -104l120 104h75l-145 -150h-100l-145 150h75zM40 580v81h541v-81h-217v-580h-107v580h-217z"/>
<glyph glyph-name="tcaron" horiz-adv-x="634" unicode="ť" d="M468 571v111h121v-111l-110 -129h-61zM378 454h-157v-320q0 -30 9 -43.5t36 -13.5h112v-77h-90q-168 0 -168 145v309h-80v77h80l30 130h71v-130h157v-77z"/>
<glyph glyph-name="Tbar" horiz-adv-x="621" unicode="Ŧ" d="M40 580v81h541v-81h-217v-209h135v-81h-135v-290h-107v290h-131v81h131v209h-217z"/>
<glyph glyph-name="tbar" horiz-adv-x="418" unicode="ŧ" d="M378 454h-157v-133h157v-80h-157v-107q0 -30 9 -43.5t36 -13.5h112v-77h-90q-168 0 -168 145v96h-80v80h80v133h-80v77h80l30 130h71v-130h157v-77z"/>
<glyph glyph-name="Utilde" horiz-adv-x="643" unicode="Ũ" d="M413 701q-38 0 -73.5 16t-63.5 32t-48 16q-26 0 -41 -12.5t-28 -39.5l-43 24q22 53 50 76.5t66 23.5q48 0 104.5 -32.5t78.5 -32.5q26 0 40.5 12.5t27.5 40.5l43 -25q-41 -99 -113 -99zM50 180v481h107v-513q0 -63 63 -63h203q63 0 63 63v513h107v-481q0 -82 -55 -131 t-144 -49h-145q-89 0 -144 49t-55 131z"/>
<glyph glyph-name="utilde" d="M377 591q-38 0 -73.5 16t-63.5 32t-48 16q-26 0 -41 -12.5t-28 -39.5l-43 24q22 53 50 76.5t66 23.5q48 0 104.5 -32.5t78.5 -32.5q26 0 40.5 12.5t27.5 40.5l43 -25q-41 -99 -113 -99zM221 0q-76 0 -118.5 37.5t-42.5 106.5v387h101v-400q0 -28 9 -40.5t31 -13.5h168 q22 1 31 13.5t9 40.5v400h101v-531h-100v61q-16 -40 -51.5 -50.5t-106.5 -10.5h-31z" unicode="ũ"/>
<glyph glyph-name="Umacron" horiz-adv-x="643" unicode="Ū" d="M147 701v80h348v-80h-348zM50 180v481h107v-513q0 -63 63 -63h203q63 0 63 63v513h107v-481q0 -82 -55 -131t-144 -49h-145q-89 0 -144 49t-55 131z"/>
<glyph glyph-name="umacron" d="M111 591v80h348v-80h-348zM221 0q-76 0 -118.5 37.5t-42.5 106.5v387h101v-400q0 -28 9 -40.5t31 -13.5h168q22 1 31 13.5t9 40.5v400h101v-531h-100v61q-16 -40 -51.5 -50.5t-106.5 -10.5h-31z" unicode="ū"/>
<glyph glyph-name="Ubreve" horiz-adv-x="643" unicode="Ŭ" d="M336 701h-31q-72 2 -117 34t-45 88h85q0 -22 21 -44t72 -22t72 22t21 44h85q0 -56 -45.5 -88t-117.5 -34zM50 180v481h107v-513q0 -63 63 -63h203q63 0 63 63v513h107v-481q0 -82 -55 -131t-144 -49h-145q-89 0 -144 49t-55 131z"/>
<glyph glyph-name="ubreve" d="M300 591h-31q-72 2 -117 34t-45 88h85q0 -22 21 -44t72 -22t72 22t21 44h85q0 -56 -45.5 -88t-117.5 -34zM221 0q-76 0 -118.5 37.5t-42.5 106.5v387h101v-400q0 -28 9 -40.5t31 -13.5h168q22 1 31 13.5t9 40.5v400h101v-531h-100v61q-16 -40 -51.5 -50.5t-106.5 -10.5 h-31z" unicode="ŭ"/>
<glyph glyph-name="Uring" horiz-adv-x="643" unicode="Ů" d="M321 750q17 0 27 9t10 24q0 33 -37 33t-37 -33q0 -15 10 -24t27 -9zM321 865q96 0 96 -82t-96 -82t-96 82t96 82zM50 180v481h107v-513q0 -63 63 -63h203q63 0 63 63v513h107v-481q0 -82 -55 -131t-144 -49h-145q-89 0 -144 49t-55 131z"/>
<glyph glyph-name="uring" d="M285 640q17 0 27 9t10 24q0 33 -37 33t-37 -33q0 -15 10 -24t27 -9zM285 755q96 0 96 -82t-96 -82t-96 82t96 82zM221 0q-76 0 -118.5 37.5t-42.5 106.5v387h101v-400q0 -28 9 -40.5t31 -13.5h168q22 1 31 13.5t9 40.5v400h101v-531h-100v61q-16 -40 -51.5 -50.5 t-106.5 -10.5h-31z" unicode="ů"/>
<glyph glyph-name="Uhungarumlaut" horiz-adv-x="643" unicode="Ű" d="M503 811l-147 -110l-40 40l127 126zM327 811l-147 -110l-40 40l127 126zM50 180v481h107v-513q0 -63 63 -63h203q63 0 63 63v513h107v-481q0 -82 -55 -131t-144 -49h-145q-89 0 -144 49t-55 131z"/>
<glyph glyph-name="uhungarumlaut" d="M467 701l-147 -110l-40 40l127 126zM291 701l-147 -110l-40 40l127 126zM221 0q-76 0 -118.5 37.5t-42.5 106.5v387h101v-400q0 -28 9 -40.5t31 -13.5h168q22 1 31 13.5t9 40.5v400h101v-531h-100v61q-16 -40 -51.5 -50.5t-106.5 -10.5h-31z" unicode="ű"/>
<glyph glyph-name="Uogonek" horiz-adv-x="643" unicode="Ų" d="M339 -80q-2 -12 -2 -17q0 -24 14.5 -39t39.5 -15h15v-46h-28q-48 0 -76.5 25t-28.5 65q0 14 2 22q4 20 17 37t26 26.5t34 21.5h-103q-89 0 -144 49t-55 131v481h107v-513q0 -63 63 -63h203q63 0 63 63v513h107v-481q0 -80 -52.5 -129t-138.5 -51h11q-66 -40 -74 -80z"/>
<glyph glyph-name="uogonek" d="M436 -80q-2 -12 -2 -17q0 -24 14.5 -39t39.5 -15h15v-46h-28q-48 0 -76.5 25t-28.5 65q0 14 2 22q4 20 17 37t26 26.5t34 21.5h-39v61q-16 -40 -51.5 -50.5t-106.5 -10.5h-31q-76 0 -118.5 37.5t-42.5 106.5v387h101v-400q0 -28 9 -40.5t31 -13.5h168q22 1 31 13.5 t9 40.5v400h101v-531q-66 -40 -74 -80z" unicode="ų"/>
<glyph glyph-name="Wcircumflex" horiz-adv-x="928" unicode="Ŵ" d="M464 805l-120 -104h-75l145 150h100l145 -150h-75zM185 0l-175 661h107l143 -580l138 580h132l138 -580l143 580h107l-175 -661h-150l-129 555l-129 -555h-150z"/>
<glyph glyph-name="wcircumflex" horiz-adv-x="779" unicode="ŵ" d="M389 695l-120 -104h-75l145 150h100l145 -150h-75zM159 0l-139 531h99l105 -455l106 455h119l105 -455l106 455h99l-139 -531h-131l-100 455l-99 -455h-131z"/>
<glyph glyph-name="Ycircumflex" horiz-adv-x="627" unicode="Ŷ" d="M313 805l-120 -104h-75l145 150h100l145 -150h-75zM617 661l-250 -447v-214h-107v214l-250 447h118l185 -360l186 360h118z"/>
<glyph glyph-name="ycircumflex" horiz-adv-x="549" unicode="ŷ" d="M274 695l-120 -104h-75l145 150h100l145 -150h-75zM529 531l-253 -711h-82l38 114l-212 597h99l155 -455l156 455h99z"/>
<glyph glyph-name="Ydieresis" horiz-adv-x="627" unicode="Ÿ" d="M338 701v111h121v-111h-121zM167 701v111h121v-111h-121zM617 661l-250 -447v-214h-107v214l-250 447h118l185 -360l186 360h118z"/>
<glyph glyph-name="Zacute" horiz-adv-x="611" unicode="Ź" d="M437 773l-228 -72l-18 48l209 99zM561 591l-386 -506h396v-85h-531v72h1l386 504h-367v85h501v-70z"/>
<glyph glyph-name="zacute" horiz-adv-x="511" unicode="ź" d="M387 663l-228 -72l-18 48l209 99zM471 448l-323 -371h323v-77h-431v83h1l323 371h-307v77h414v-83z"/>
<glyph glyph-name="Zdotaccent" horiz-adv-x="611" unicode="Ż" d="M245 701v111h121v-111h-121zM561 591l-386 -506h396v-85h-531v72h1l386 504h-367v85h501v-70z"/>
<glyph glyph-name="zdotaccent" horiz-adv-x="511" unicode="ż" d="M195 591v111h121v-111h-121zM471 448l-323 -371h323v-77h-431v83h1l323 371h-307v77h414v-83z"/>
<glyph glyph-name="Zcaron" horiz-adv-x="611" unicode="Ž" d="M185 851l120 -104l120 104h75l-145 -150h-100l-145 150h75zM561 591l-386 -506h396v-85h-531v72h1l386 504h-367v85h501v-70z"/>
<glyph glyph-name="zcaron" horiz-adv-x="511" unicode="ž" d="M135 741l120 -104l120 104h75l-145 -150h-100l-145 150h75zM471 448l-323 -371h323v-77h-431v83h1l323 371h-307v77h414v-83z"/>
<glyph glyph-name="florin" horiz-adv-x="576" unicode="ƒ" d="M187 -48l80 502h-79v77h91l9 56q14 69 49.5 106.5t88.5 37.5h90v-77h-82q-24 0 -31 -10.5t-14 -43.5l-11 -69h108v-77h-120l-78 -489q-14 -69 -49.5 -106.5t-88.5 -37.5h-90v77h82q25 0 35 12t10 42z"/>
<glyph glyph-name="Aringacute" horiz-adv-x="636" unicode="Ǻ" d="M450 923l-228 -72l-18 48l209 99zM318 730q17 0 27 9t10 24q0 33 -37 33t-37 -33q0 -15 10 -24t27 -9zM318 845q96 0 96 -82t-96 -82t-96 82t96 82zM318 570l-119 -337h238zM10 0l239 661h137l240 -661h-108l-52 148h-297l-52 -148h-107z"/>
<glyph glyph-name="aringacute" d="M417 823l-228 -72l-18 48l209 99zM285 620q17 0 27 9t10 24q0 33 -37 33t-37 -33q0 -15 10 -24t27 -9zM285 735q96 0 96 -82t-96 -82t-96 82t96 82zM161 131q0 -30 10 -42t35 -12h164q21 0 29.5 8t10.5 27v132h-209q-22 -1 -31 -13.5t-9 -40.5v-59zM60 144v33 q0 69 42.5 106.5t118.5 37.5h189v89q0 44 -35 44h-261v77h225q77 0 124 -38t47 -106v-387h-100v61q-16 -40 -51.5 -50.5t-106.5 -10.5h-31q-76 0 -118.5 37.5t-42.5 106.5z" unicode="ǻ"/>
<glyph glyph-name="AEacute" horiz-adv-x="964" unicode="Ǽ" d="M605 781l-228 -72l-18 48l209 99zM412 576l-168 -323h193v323h-25zM437 0v168h-237l-87 -168h-103l353 661h531v-85h-350v-191h320v-85h-320v-215h350v-85h-457z"/>
<glyph glyph-name="aeacute" horiz-adv-x="939" unicode="ǽ" d="M592 651l-228 -72l-18 48l209 99zM738 454h-185q-43 0 -43 -44v-105h263v105q0 44 -35 44zM196 238q-24 0 -29.5 -7t-5.5 -27v-83q0 -14 1.5 -21.5t9.5 -15t24 -7.5h138q75 0 75 44v117h-213zM100 531h244q103 0 119 -43q16 43 122 43h118q77 0 124 -38t47 -106v-159 h-364v-107q0 -27 13 -35.5t42 -8.5h309v-77h-309q-60 0 -108 35q-28 -23 -44 -28q-22 -7 -69 -7h-113q-77 0 -124 38t-47 106v43q0 128 171 128h178v95q0 44 -75 44h-234v77z"/>
<glyph glyph-name="Oslashacute" horiz-adv-x="673" unicode="Ǿ" d="M468 773l-228 -72l-18 48l209 99zM453 85q30 0 41.5 14.5t11.5 48.5v272l-339 -287q2 -26 14 -37t39 -11h233zM167 513v-291l339 287v4q0 34 -11.5 48.5t-41.5 14.5h-233q-30 0 -41.5 -14.5t-11.5 -48.5zM613 491v-321q0 -82 -50 -126t-139 -44h-175q-111 0 -160 67 l-79 -67v90l53 44q-3 16 -3 36v321q0 82 50 126t139 44h175q121 0 167 -80l82 70v-90l-61 -51q1 -6 1 -19z"/>
<glyph glyph-name="oslashacute" horiz-adv-x="588" unicode="ǿ" d="M426 663l-228 -72l-18 48l209 99zM382 77q25 0 35 12t10 42v190l-266 -204q2 -22 12.5 -31t32.5 -9h176zM161 400v-194l266 205q-1 23 -11.5 33t-33.5 10h-176q-25 0 -35 -12t-10 -42zM528 387v-243q0 -69 -42.5 -106.5t-117.5 -37.5h-148q-94 0 -136 57l-74 -57v90 l50 39v15v243q0 69 42.5 106.5t117.5 37.5h148q97 0 137 -60l78 60v-90l-56 -43q0 -2 0.5 -5.5t0.5 -5.5z"/>
<glyph glyph-name="Scommaaccent" horiz-adv-x="619" unicode="Ș" d="M270 -111v81h121v-81l-110 -109h-61zM462 120v147l-295 39q-56 7 -86.5 49.5t-30.5 98.5v27q0 87 53 133.5t148 46.5h285v-85h-323q-31 0 -43.5 -7.5t-12.5 -27.5v-141l295 -41q117 -16 117 -152v-27q0 -87 -53 -133.5t-148 -46.5h-305v85h343q31 0 43.5 7.5t12.5 27.5z "/>
<glyph glyph-name="scommaaccent" horiz-adv-x="527" unicode="ș" d="M218 -111v81h121v-81l-110 -109h-61zM376 105v98l-54 12t-69 16t-79 19q-66 15 -95 37t-29 65v35q0 69 42.5 106.5t118.5 37.5h248v-77h-263q-25 0 -35 -6t-10 -22v-90q49 -12 101 -25.5t88 -22.5q76 -18 106.5 -39.5t30.5 -66.5v-38q0 -69 -42.5 -106.5t-118.5 -37.5 h-256v77h271q25 0 35 6t10 22z"/>
<glyph glyph-name="circumflex" horiz-adv-x="490" unicode="ˆ" d="M245 685l-120 -104h-75l145 150h100l145 -150h-75z"/>
<glyph glyph-name="caron" horiz-adv-x="520" unicode="ˇ" d="M140 731l120 -104l120 104h75l-145 -150h-100l-145 150h75z"/>
<glyph glyph-name="breve" horiz-adv-x="486" unicode="˘" d="M258 609h-31q-72 2 -117 34t-45 88h85q0 -22 21 -44t72 -22t72 22t21 44h85q0 -56 -45.5 -88t-117.5 -34z"/>
<glyph glyph-name="dotaccent" horiz-adv-x="221" unicode="˙" d="M50 620v111h121v-111h-121z"/>
<glyph glyph-name="ring" horiz-adv-x="312" unicode="˚" d="M156 622q17 0 27 9t10 24q0 33 -37 33t-37 -33q0 -15 10 -24t27 -9zM156 737q96 0 96 -82t-96 -82t-96 82t96 82z"/>
<glyph glyph-name="ogonek" horiz-adv-x="241" unicode="˛" d="M117 -80q-2 -12 -2 -17q0 -24 14.5 -39t39.5 -15h15v-46h-28q-48 0 -76.5 25t-28.5 65q0 14 2 22q4 20 17 37t26 26.5t34 21.5h61q-66 -40 -74 -80z"/>
<glyph glyph-name="tilde" horiz-adv-x="510" unicode="˜" d="M347 596q-38 0 -73.5 16t-63.5 32t-48 16q-26 0 -41 -12.5t-28 -39.5l-43 24q22 53 50 76.5t66 23.5q48 0 104.5 -32.5t78.5 -32.5q26 0 40.5 12.5t27.5 40.5l43 -25q-41 -99 -113 -99z"/>
<glyph glyph-name="hungarumlaut" horiz-adv-x="463" unicode="˝" d="M413 685l-147 -110l-40 40l127 126zM237 685l-147 -110l-40 40l127 126z"/>
<glyph glyph-name="pi" horiz-adv-x="691" unicode="π" d="M247 0h-101v451h-86v80h571v-80h-88v-320q0 -54 55 -54h32v-77h-40q-148 0 -148 114v337h-195v-451z"/>
<glyph glyph-name="Wgrave" horiz-adv-x="928" unicode="Ẁ" d="M553 701l-228 72l37 75l209 -99zM185 0l-175 661h107l143 -580l138 580h132l138 -580l143 580h107l-175 -661h-150l-129 555l-129 -555h-150z"/>
<glyph glyph-name="wgrave" horiz-adv-x="779" unicode="ẁ" d="M478 591l-228 72l37 75l209 -99zM159 0l-139 531h99l105 -455l106 455h119l105 -455l106 455h99l-139 -531h-131l-100 455l-99 -455h-131z"/>
<glyph glyph-name="Wacute" horiz-adv-x="928" unicode="Ẃ" d="M596 773l-228 -72l-18 48l209 99zM185 0l-175 661h107l143 -580l138 580h132l138 -580l143 580h107l-175 -661h-150l-129 555l-129 -555h-150z"/>
<glyph glyph-name="wacute" horiz-adv-x="779" unicode="ẃ" d="M521 663l-228 -72l-18 48l209 99zM159 0l-139 531h99l105 -455l106 455h119l105 -455l106 455h99l-139 -531h-131l-100 455l-99 -455h-131z"/>
<glyph glyph-name="Wdieresis" horiz-adv-x="928" unicode="Ẅ" d="M489 701v111h121v-111h-121zM318 701v111h121v-111h-121zM185 0l-175 661h107l143 -580l138 580h132l138 -580l143 580h107l-175 -661h-150l-129 555l-129 -555h-150z"/>
<glyph glyph-name="wdieresis" horiz-adv-x="779" unicode="ẅ" d="M414 591v111h121v-111h-121zM243 591v111h121v-111h-121zM159 0l-139 531h99l105 -455l106 455h119l105 -455l106 455h99l-139 -531h-131l-100 455l-99 -455h-131z"/>
<glyph glyph-name="Ygrave" horiz-adv-x="627" unicode="Ỳ" d="M402 701l-228 72l37 75l209 -99zM617 661l-250 -447v-214h-107v214l-250 447h118l185 -360l186 360h118z"/>
<glyph glyph-name="ygrave" horiz-adv-x="549" unicode="ỳ" d="M363 591l-228 72l37 75l209 -99zM529 531l-253 -711h-82l38 114l-212 597h99l155 -455l156 455h99z"/>
<glyph glyph-name="endash" horiz-adv-x="667" unicode="–" d="M50 264v85h567v-85h-567z"/>
<glyph glyph-name="emdash" horiz-adv-x="993" unicode="—" d="M50 264v85h893v-85h-893z"/>
<glyph glyph-name="quoteleft" horiz-adv-x="311" unicode="‘" d="M171 681v-111l50 -129h-61l-110 129v111h121z"/>
<glyph glyph-name="quotesinglbase" horiz-adv-x="271" unicode="‚" d="M100 0v111h121v-111l-110 -129h-61z"/>
<glyph glyph-name="quotedblleft" horiz-adv-x="458" unicode="“" d="M378 553v-111h-121v111l110 129h61zM191 553v-111h-121v111l110 129h61z"/>
<glyph glyph-name="quotedblright" horiz-adv-x="458" unicode="”" d="M267 571v111h121v-111l-110 -129h-61zM80 571v111h121v-111l-110 -129h-61z"/>
<glyph glyph-name="dagger" horiz-adv-x="451" unicode="†" d="M40 388v82h135v191h101v-191h135v-82h-135v-568h-101v568h-135z"/>
<glyph glyph-name="daggerdbl" horiz-adv-x="451" unicode="‡" d="M40 388v82h135v191h101v-191h135v-82h-135v-138h135v-82h-135v-348h-101v348h-135v82h135v138h-135z"/>
<glyph glyph-name="ellipsis" horiz-adv-x="623" unicode="…" d="M452 0v111h121v-111h-121zM251 0v111h121v-111h-121zM50 0v111h121v-111h-121z"/>
<glyph glyph-name="perthousand" horiz-adv-x="1290" unicode="‰" d="M987 105q0 -23 8 -33t28 -10h91q20 0 28 10t8 33v155q0 24 -8 33.5t-28 9.5h-91q-20 0 -28 -9.5t-8 -33.5v-155zM1035 365h67q60 0 94 -30t34 -85v-135q0 -55 -34 -85t-94 -30h-67q-60 0 -94 30t-34 85v135q0 55 34 85t94 30zM140 401q0 -23 8 -33t28 -10h91q20 0 28 10 t8 33v155q0 24 -8 33.5t-28 9.5h-91q-20 0 -28 -9.5t-8 -33.5v-155zM188 661h67q60 0 94 -30t34 -85v-135q0 -55 -34 -85t-94 -30h-67q-60 0 -94 30t-34 85v135q0 55 34 85t94 30zM608 105q0 -23 8 -33t28 -10h91q20 0 28 10t8 33v155q0 24 -8 33.5t-28 9.5h-91 q-20 0 -28 -9.5t-8 -33.5v-155zM656 365h67q60 0 94 -30t34 -85v-135q0 -55 -34 -85t-94 -30h-67q-60 0 -94 30t-34 85v135q0 55 34 85t94 30zM595 731h101l-360 -731h-101z"/>
<glyph glyph-name="guilsinglleft" horiz-adv-x="299" unicode="‹" d="M239 490l-77 -195l77 -195h-58l-121 195l121 195h58z"/>
<glyph glyph-name="guilsinglright" horiz-adv-x="299" unicode="›" d="M137 295l-77 195h58l121 -195l-121 -195h-58z"/>
<glyph glyph-name="fraction" horiz-adv-x="271" unicode="⁄" d="M-100 0l390 661h81l-390 -661h-81z"/>
<glyph glyph-name="Euro" horiz-adv-x="627" unicode="€" d="M50 369v60h93v62q0 82 50 126t139 44h234q-2 -8 -15 -37.5t-19 -47.5h-229q-30 0 -41.5 -14.5t-11.5 -48.5v-84h237l-21 -60h-216v-49h208l-22 -60h-186v-112q0 -34 11.5 -48.5t41.5 -14.5h274v-85h-245q-89 0 -139 44t-50 126v90h-93v60h93v49h-93z"/>
<glyph glyph-name="trademark" horiz-adv-x="938" unicode="™" d="M50 663v68h276v-68h-102v-277h-72v277h-102zM531 386l-90 257v-257h-77v345h123l93 -266l85 266h113v-345h-78v257l-89 -257h-80z"/>
<glyph glyph-name="summation" horiz-adv-x="601" unicode="∑" d="M50 -23l285 288l-285 289v107h501v-85h-399l303 -311l-303 -310h399v-85h-501v107z"/>
<glyph glyph-name="minus" horiz-adv-x="547" unicode="−" d="M50 267v85h447v-85h-447z"/>
<glyph glyph-name="integral" horiz-adv-x="435" unicode="∫" d="M167 -49v656q0 68 30 96t98 28h70v-77h-52q-25 0 -35 -12t-10 -42v-656q0 -68 -30 -96t-98 -28h-70v77h52q25 0 35 12t10 42z"/>
<glyph glyph-name="approxequal" horiz-adv-x="579" unicode="≈" d="M386 181q-49 0 -116.5 32t-87.5 32q-35 0 -54.5 -12t-34.5 -40l-43 24q28 57 64 78.5t82 21.5q48 0 114 -32.5t88 -32.5q34 0 53 12t35 41l43 -25q-28 -57 -63 -78t-80 -21zM386 328q-49 0 -116.5 32t-87.5 32q-35 0 -54.5 -12t-34.5 -40l-43 24q28 57 64 78.5t82 21.5 q48 0 114 -32.5t88 -32.5q34 0 53 12t35 41l43 -25q-28 -57 -63 -78t-80 -21z"/>
<glyph glyph-name="notequal" horiz-adv-x="547" unicode="≠" d="M50 347v85h245l85 149h101l-85 -149h101v-85h-149l-30 -53h179v-85h-228l-118 -209h-101l118 209h-118v85h167l30 53h-197z"/>
<glyph glyph-name="lessequal" horiz-adv-x="497" unicode="≤" d="M188 318l239 -204h-138l-228 204l228 214h138zM60 0v77h387v-77h-387z"/>
<glyph glyph-name="greaterequal" horiz-adv-x="497" unicode="≥" d="M70 114l239 204l-239 214h138l228 -214l-228 -204h-138zM437 77v-77h-387v77h387z"/>
</font>
</defs>
</svg>
